<?xml version="1.0" encoding="UTF-8" standalone="no"?>
<svg
   xmlns="http://www.w3.org/2000/svg"
   xmlns:xlink="http://www.w3.org/1999/xlink"
   viewBox="-40 -40 80 80"
   version="1.1"
   width="100%"
   height="100%"
   style="stroke:#000000; stroke-width:1; stroke-miterlimit:4; fill: #a00"
  >
  <g transform=" scale(1.1) translate(51,-50)">
    <rect
       y="42.729137"
       x="-47.309666"
       height="7.5695462"
       width="4.9890189"
       style="fill:#803300"
       />
    <path
       d="m -46.349133,33.988653 -9.39025,7.225475 c 0,0 5.474245,5.594447 14.219522,4.472914 5.365857,-0.688141 8.31708,-4.644949 8.31708,-4.644949 z"
       style="fill:#008000"
       />
    <path
       d="m -46.492496,27.967423 -7.526536,7.225475 c 0,0 4.387753,5.594447 11.397327,4.472914 4.300878,-0.688141 6.666361,-4.644949 6.666361,-4.644949 z"
       style="fill:#008000"
       />
    <path
       d="m -46.793558,22.536605 -6.021229,7.225475 c 0,0 3.510203,5.594447 9.117862,4.472914 3.440702,-0.688141 5.333089,-4.644949 5.333089,-4.644949 z"
       style="fill:#008000"
       />
  </g>
  <g transform="scale(1.3) translate(34,-48)">
    <rect
       y="42.729137"
       x="-47.309666"
       height="7.5695462"
       width="4.9890189"
       style="fill:#803300"
       />
    <path
       d="m -46.349133,33.988653 -9.39025,7.225475 c 0,0 5.474245,5.594447 14.219522,4.472914 5.365857,-0.688141 8.31708,-4.644949 8.31708,-4.644949 z"
       style="fill:#008000"
       />
    <path
       d="m -46.492496,27.967423 -7.526536,7.225475 c 0,0 4.387753,5.594447 11.397327,4.472914 4.300878,-0.688141 6.666361,-4.644949 6.666361,-4.644949 z"
       style="fill:#008000"
       />
    <path
       d="m -46.793558,22.536605 -6.021229,7.225475 c 0,0 3.510203,5.594447 9.117862,4.472914 3.440702,-0.688141 5.333089,-4.644949 5.333089,-4.644949 z"
       style="fill:#008000"
       />
  </g>
  <g transform="scale(1.5) translate(44, -37)">
    <rect
       y="42.729137"
       x="-47.309666"
       height="7.5695462"
       width="4.9890189"
       style="fill:#803300"
       />
    <path
       d="m -46.349133,33.988653 -9.39025,7.225475 c 0,0 5.474245,5.594447 14.219522,4.472914 5.365857,-0.688141 8.31708,-4.644949 8.31708,-4.644949 z"
       style="fill:#008000"
       />
    <path
       d="m -46.492496,27.967423 -7.526536,7.225475 c 0,0 4.387753,5.594447 11.397327,4.472914 4.300878,-0.688141 6.666361,-4.644949 6.666361,-4.644949 z"
       style="fill:#008000"
       />
    <path
       d="m -46.793558,22.536605 -6.021229,7.225475 c 0,0 3.510203,5.594447 9.117862,4.472914 3.440702,-0.688141 5.333089,-4.644949 5.333089,-4.644949 z"
       style="fill:#008000"
       />
  </g>
</svg>
