<?xml version="1.0" encoding="UTF-8" standalone="no"?>
<svg
   xmlns="http://www.w3.org/2000/svg"
   xmlns:xlink="http://www.w3.org/1999/xlink"
   viewBox="-30 -30 60 60"
   version="1.1"
   width="2048"
   height="2048"
   style="stroke:#000000; stroke-width:0.7; stroke-miterlimit:4; fill: #a00;"
  >
  <g transform="matrix(0.24181379,0,0,0.24496736,-10.859125,-214.07158)">
    <g transform="matrix(0.96454135,-0.26393177,0.26393177,0.96454135,-237.25114,56.741124)">
      <path
         style="fill:#ffffff"
         d="m 51.785714,834.68361 5.178572,-3.92857 -0.178572,-26.25 -5.714285,4.10714 z"
         />
      <path
         style="fill:#ffffff"
         d="m 48.482143,834.59433 -5.178572,-3.92857 0.178572,-26.25 5.714285,4.10714 z"
         />
      <path
         style="fill:none"
         d="m 49.821429,808.79075 0.357143,45.17857"
         />
    </g>
    <g transform="matrix(0.96454135,-0.26393177,0.26393177,0.96454135,-219.94341,52.537127)">
      <path
         style="fill:#ffffff"
         d="m 51.785714,834.68361 5.178572,-3.92857 -0.178572,-26.25 -5.714285,4.10714 z"
         />
      <path
         style="fill:#ffffff"
         d="m 48.482143,834.59433 -5.178572,-3.92857 0.178572,-26.25 5.714285,4.10714 z"
         />
      <path
         style="fill:none"
         d="m 49.821429,808.79075 0.357143,45.17857"
         />
    </g>
    <g transform="matrix(0.96454135,-0.26393177,0.26393177,0.96454135,-225.6577,58.965698)">
      <path
         style="fill:#ffffff"
         d="m 51.785714,834.68361 5.178572,-3.92857 -0.178572,-26.25 -5.714285,4.10714 z"
         />
      <path
         style="fill:#ffffff"
         d="m 48.482143,834.59433 -5.178572,-3.92857 0.178572,-26.25 5.714285,4.10714 z"
         />
      <path
         style="fill:none"
         d="m 49.821429,808.79075 0.357143,45.17857"
         />
    </g>
    <rect
       transform="matrix(-0.96060228,0.27792671,-0.27792671,-0.96060228,0,0)"
       y="-874.3288"
       x="183.6895"
       height="43.689095"
       width="26.011429"
       style="fill:#552200" />
  </g>
  <path
     style="fill:#4d4d4d"
     d="m -2.080525,-13.913694 -0.51907,5.9079731 13.526385,0.092796 -0.58014,-6.0007691 z"
     />
  <rect
     style="fill:#808080"
     width="6.3692365"
     height="10.569241"
     x="-2.9302452"
     y="7.6573062"
     transform="matrix(0.1801896,-0.9836319,0.98278356,0.18476057,0,0)" />
  <rect
     style="fill:#d38d5f"
     width="5.404448"
     height="4.9800196"
     x="1.2934399"
     y="-6.2271538" />
  <rect
     style="fill:#d38d5f"
     width="10.289824"
     height="12.094334"
     x="-0.95078951"
     y="-16.790358" />
  <rect
     style="fill:#ffffff"
     width="2.9922931"
     height="2.6292028"
     x="5.522336"
     y="-13.264119" />
  <path
     style="fill:#b3b3b3"
     d="m 2.8229749,-23.611327 c 0,0 -3.75563385,-0.463975 -4.3052382,4.268591 -0.5496036,4.732564 -0.1526666,3.711813 -0.1526666,3.711813 l 4.6105743,-0.03093 z"
     />
  <path
     style="fill:#b3b3b3"
     d="m 4.9727377,-23.564413 c 0,0 4.3968401,-0.556772 4.9464441,4.175794 0.5496042,4.732564 0.1221332,3.619018 0.1221332,3.619018 l -4.9464441,0.06186 z"
     />
  <rect
     style="fill:#ffffff"
     width="2.9922931"
     height="2.6292028"
     x="-2.835386"
     y="-13.279594"
     transform="scale(-1,1)" />
  <path
     style="fill:#808080"
     d="m 2.7132496,-13.820897 -0.396937,4.7016329 3.5418971,0.061861 -0.5496036,-4.7944299 z"
     />
  <rect
     style="fill:#0000ff"
     width="0.70227283"
     height="0.49490881"
     x="6.438345"
     y="-12.274309" />
  <path
     style="fill:#808080"
     d="m -2.2942596,-13.789966 12.9462446,0 -0.03053,-2.041499 -5.34338,0.06186 -0.1221332,-8.289723 -2.4426893,0 0.122135,8.289723 -5.1296442,0 z"
     />
  <rect
     style="fill:#0000ff"
     width="0.70227283"
     height="0.49490881"
     x="-1.6140383"
     y="-12.196979"
     transform="scale(-1,1)" />
  <path
     style="fill:none"
     d="m 1.3746487,-7.06998 5.1809589,0.355614"
     />
  <rect
     style="fill:#999999"
     width="15.156542"
     height="12.204624"
     x="-3.566035"
     y="-2.6122546" />
  <rect
     style="fill:#004455"
     width="6.2899218"
     height="10.702402"
     x="4.3315363"
     y="11.914348" />
  <rect
     style="fill:#004455"
     width="6.2899218"
     height="10.702402"
     x="-2.9049301"
     y="11.759703" />
  <rect
     class="team_col"
     width="15.156542"
     height="5.7089462"
     x="-3.643683"
     y="9.3073235" />
  <rect
     style="fill:#808080"
     width="6.2906079"
     height="10.701265"
     x="-0.03436552"
     y="-10.457604"
     transform="matrix(-0.99573096,-0.09230309,0.08996123,-0.99594527,0,0)" />
  <rect
     style="fill:#2b0000"
     width="5.1296453"
     height="2.1033626"
     x="-2.351624"
     y="20.321854" />
  <rect
     style="fill:#2b0000"
     width="5.1296453"
     height="2.1033626"
     x="4.9018893"
     y="20.482826" />
  <g transform="matrix(0.24181379,0,0,0.24496736,-44.54033,-200.07346)">
    <g transform="translate(226.27417,-43.436559)">
      <path
         style="fill:none"
         d="M 23.571429,951.6479 16.785714,771.29075"
         />
      <path
         style="fill:#552200"
         d="m 13.131983,770.02455 6.565992,-1.01016 c 0,0 17.172593,26.26397 21.213203,94.44927 4.04061,68.18529 -15.657364,91.92388 -15.657364,91.92388 l -5.555839,-1.51523 c 0,0 18.011266,-34.22206 14.647212,-90.40865 -3.382081,-56.48768 -21.213204,-93.43911 -21.213204,-93.43911 z"
         />
    </g>
  </g>
  <g transform="matrix(0.14723454,-0.19432418,0.19182257,0.14915468,-181.38622,-105.06992)">
    <g transform="matrix(0.99999539,-0.00303662,0.00303662,0.99999539,20.71741,20.628595)">
      <path
         style="fill:#ffffff"
         d="m 51.785714,834.68361 5.178572,-3.92857 -0.178572,-26.25 -5.714285,4.10714 z"
         />
      <path
         style="fill:#ffffff"
         d="m 48.482143,834.59433 -5.178572,-3.92857 0.178572,-26.25 5.714285,4.10714 z"
         />
      <path
         style="fill:none"
         d="m 49.821429,808.79075 0.524942,73.08467"
         />
    </g>
    <path
       transform="matrix(0.21095467,0,0,1,71.471098,75.256365)"
       d="M 8.5862959,847.30121 -4.1571629,824.35408 22.087371,824.79149 z"
       style="fill:#b3b3b3"
       />
  </g>
</svg>
