<?xml version="1.0" encoding="UTF-8" standalone="no"?>
<svg
   xmlns="http://www.w3.org/2000/svg"
   xmlns:xlink="http://www.w3.org/1999/xlink"
   viewBox="-30 -30 60 60"
   version="1.1"
   width="100%"
   height="100%"
   style="stroke:#000000; stroke-width:0.7; stroke-miterlimit:4; fill: #a00;"
  >
  <path
     style="fill:#4d4d4d"
     d="m -4.440199,-11.427312 -0.473629,5.3058186 12.342253,0.08334 -0.529354,-5.3891576 z"
      />
  <rect
     style="fill:#808080"
     width="5.7436185"
     height="10.346065"
     x="-1.0166402"
     y="6.1216626"
     transform="matrix(0.59524241,-0.80354619,0.82065547,0.5714233,0,0)" />
  <rect
     style="fill:#d38d5f"
     width="4.9313293"
     height="4.472446"
     x="-1.3615993"
     y="-4.5241919" />
  <rect
     style="fill:#d38d5f"
     width="9.3890276"
     height="10.861654"
     x="-3.4093649"
     y="-14.010772" />
  <rect
     style="fill:#ffffff"
     width="2.7303402"
     height="2.3612294"
     x="2.4970891"
     y="-10.843936" />
  <path
     style="fill:#b3b3b3"
     d="m 0.03403702,-20.136543 c 0,0 -3.42685702,-0.416687 -3.92834702,3.833527 -0.501491,4.25021 -0.139303,3.333497 -0.139303,3.333497 l 4.20695402,-0.02777 z"
     />
  <path
     style="fill:#b3b3b3"
     d="m 1.995605,-20.094412 c 0,0 4.011929,-0.500026 4.513419,3.750188 0.50149,4.250215 0.111441,3.250164 0.111441,3.250164 l -4.513419,0.05556 z"
     />
  <rect
     style="fill:#ffffff"
     width="2.7303402"
     height="2.3612294"
     x="-0.045358427"
     y="-10.857833"
     transform="scale(-1,1)" />
  <path
     style="fill:#808080"
     d="m -0.06608298,-11.343973 -0.362188,4.2224316 3.23183098,0.05556 -0.50149,-4.3057696 z"
      />
  <rect
     style="fill:#0000ff"
     width="0.64079416"
     height="0.44446671"
     x="3.3329113"
     y="-9.9550085" />
  <path
     style="fill:#808080"
     d="m -4.635223,-11.316194 11.8129,0 -0.02786,-1.833425 -4.875607,0.05556 -0.111441,-7.444819 -2.22885098,0 0.111444,7.444819 -4.68058402,0 z"
     />
  <rect
     style="fill:#0000ff"
     width="0.64079416"
     height="0.44446671"
     x="1.0690635"
     y="-9.8855619"
     transform="scale(-1,1)" />
  <path
     style="fill:none"
     d="m -1.280567,-5.1254234 4.71354,0.008"
      />
  <rect
     style="fill:#999999"
     width="13.829701"
     height="10.960705"
     x="-5.7956738"
     y="-1.2777359" />
  <rect
     style="fill:#004455"
     width="5.7392869"
     height="9.6115923"
     x="1.4105299"
     y="11.768294" />
  <rect
     style="fill:#004455"
     width="5.7392869"
     height="9.6115923"
     x="-5.1924424"
     y="11.629413" />
  <rect
     style="fill:#666666"
     width="13.829701"
     height="5.127079"
     x="-5.8665166"
     y="9.4269819" />
  <rect
     style="fill:#4d4d4d"
     width="14.385168"
     height="18.296638"
     x="-16.760231"
     y="-3.1715972"
     transform="matrix(0.97910916,-0.2033353,0.20447958,0.97887083,0,0)" />
  <rect
     class="team_col"
     width="12.268017"
     height="16.185163"
     x="-15.757372"
     y="-2.2825594"
     transform="matrix(0.97910916,-0.2033353,0.20447958,0.97887083,0,0)" />
  <rect
     style="fill:#2b0000"
     width="4.680583"
     height="1.8889836"
     x="-4.6875691"
     y="19.31889" />
  <rect
     style="fill:#2b0000"
     width="4.680583"
     height="1.8889836"
     x="1.9309537"
     y="19.463453" />
  <path
     style="fill:#cccccc"
     d="m 15.824215,-14.956751 c 0,0 -6.2496684,-3.577163 -9.179182,6.3997336 -2.9295091,9.9768947 4.625884,10.7970852 4.625884,10.7970852 0,0 0.405643,-6.9681945 1.435176,-6.6434837 1.690229,0.5330942 3.557916,0.8324365 3.557916,0.8324365 l 1.394716,-5.81115 c 0,0 -3.817257,-0.4188038 -2.774936,-2.8382746 0.117772,-0.273371 0.940427,-2.736351 0.940427,-2.736351 z"
     />
  <path
     style="fill:#cccccc"
     d="m 23.174708,-12.841013 c 0,0 7.269607,-0.274923 4.880869,9.8340668 -2.388743,10.1089828 -9.434168,7.3627514 -9.434168,7.3627514 0,0 3.109503,-6.307747 2.043546,-6.4948823 -1.750033,-0.3072314 -3.539703,-0.9012384 -3.539703,-0.9012384 l 1.665102,-5.745108 c 0,0 3.561796,1.3836166 3.849513,-1.2201755 0.03251,-0.294198 0.534843,-2.835416 0.534843,-2.835416 z"
  />
  <rect
     style="fill:#552200"
     width="1.9768367"
     height="20.710749"
     x="14.333004"
     y="-13.800883"
     transform="matrix(0.97143994,0.23728559,-0.25595554,0.96668855,0,0)" />
</svg>
