<?xml version="1.0" encoding="UTF-8" standalone="no"?>
<svg
   xmlns="http://www.w3.org/2000/svg"
   xmlns:xlink="http://www.w3.org/1999/xlink"
   viewBox="-30 -30 60 60"
   version="1.1"
   width="100%"
   height="100%"
   style="stroke:#000000; stroke-width:0.7; stroke-miterlimit:4; fill: #a00"
  >
  <path
     style="fill:#4d4d4d"
     d="m -2.5842387,-5.7718316 -0.445464,4.5300788 11.6082854,0.071154 -0.4978737,-4.6012329 z"
     />
  <rect
     style="fill:#808080"
     width="4.9037552"
     height="9.0391941"
     x="-7.2206998"
     y="6.7499976"
     transform="matrix(0.20085126,-0.97962175,0.98618466,0.16564968,0,0)" />
  <rect
     style="fill:#d38d5f"
     width="4.638073"
     height="3.818548"
     x="0.31128782"
     y="0.12201127" />
  <rect
     style="fill:#d38d5f"
     width="8.8306808"
     height="9.2736177"
     x="-1.6147031"
     y="-7.9775767" />
  <rect
     style="fill:#ffffff"
     width="2.5679727"
     height="2.0160038"
     x="3.9405074"
     y="-5.2737517" />
  <path
     style="fill:#b3b3b3"
     d="m 1.6239215,-13.207722 c 0,0 -3.223067,-0.355764 -3.6947349,3.2730427 -0.4716679,3.6288054 -0.1310178,2.8461219 -0.1310178,2.8461219 l 3.9567733,-0.023722 z"
     id="path3002-1-3"
     />
  <path
     style="fill:#b3b3b3"
     d="m 3.4688394,-13.17175 c 0,0 3.7733496,-0.426917 4.2450174,3.2018893 0.4716679,3.6288054 0.1048139,2.7749677 0.1048139,2.7749677 l -4.2450175,0.047435 z"
     />
  <rect
     style="fill:#ffffff"
     width="2.5679727"
     height="2.0160038"
     x="-1.6345742"
     y="-5.2856197"
     transform="scale(-1,1)" />
  <path
     style="fill:#808080"
     d="m 1.5297563,-5.7006777 -0.3406502,3.605089 3.0396424,0.047433 -0.4716679,-3.6762429 z"
     />
  <rect
     style="fill:#0000ff"
     width="0.60268742"
     height="0.37948304"
     x="4.7266212"
     y="-4.5147943" />
  <path
     style="fill:#808080"
     d="m -2.7676643,-5.6769602 11.1104107,0 -0.026201,-1.5653687 -4.5856658,0.047435 -0.1048139,-6.3563411 -2.0963065,0 0.1048157,6.3563411 -4.4022364,0 z"
     />
  <rect
     style="fill:#0000ff"
     width="0.60268742"
     height="0.37948304"
     x="-0.58642334"
     y="-4.4554949"
     transform="scale(-1,1)" />
  <path
     style="fill:none"
     d="m 1.671835,-0.68457706 2.0741893,0.59332979"
     />
  <rect
     style="fill:#808080"
     width="5.1632347"
     height="8.6219387"
     x="-5.1061974"
     y="-13.748797"
     transform="matrix(-0.76058384,-0.64923972,0.72147731,-0.69243808,0,0)" />
  <rect
     style="fill:#999999"
     width="13.007277"
     height="9.3581848"
     x="-3.859098"
     y="2.8938112" />
  <rect
     style="fill:#004455"
     width="5.3979831"
     height="8.2063208"
     x="2.9185646"
     y="14.032438" />
  <rect
     style="fill:#004455"
     width="5.3979831"
     height="8.2063208"
     x="-3.2917385"
     y="13.913861" />
  <rect
     class="team_col"
     width="13.007277"
     height="4.3774695"
     x="-3.9257355"
     y="12.033439" />
  <rect
     style="fill:#2b0000"
     width="4.4022384"
     height="1.612803"
     x="-2.816895"
     y="20.479092" />
  <rect
     style="fill:#2b0000"
     width="4.4022384"
     height="1.612803"
     x="3.4080367"
     y="20.602516" />
  <rect
     style="fill:#552200"
     width="1.7104914"
     height="6.6161394"
     x="15.761356"
     y="-6.0006056"
     transform="matrix(0.84065902,0.54156478,-0.61812911,0.78607659,0,0)" />
  <path
     style="fill:#cccccc"
     d="m 15.135989,4.4801937 3.333843,2.0653708 5.20892,-6.56635451 -0.05297,-2.99838219 -3.319764,0.8667855 z"
     />
  <rect
     style="fill:#552200"
     width="0.7865594"
     height="6.8354959"
     x="3.8714504"
     y="13.222477"
     transform="matrix(0.61754517,-0.78653542,0.84103561,0.54097977,0,0)" />
  <rect
     style="fill:#552200"
     width="1.6645899"
     height="6.8005171"
     x="-15.613639"
     y="-2.960408"
     transform="matrix(0.66097924,-0.75040418,0.8109108,0.58516978,0,0)" />
  <path
     style="fill:#cccccc"
     d="m -12.090668,11.667897 2.4601005,-2.9005416 -6.9600965,-5.0654445 -3.310642,-0.1154721 0.775364,3.0475575 z"
     />
  <rect
     style="fill:#552200"
     width="0.80859113"
     height="6.6511517"
     x="0.79510093"
     y="-18.086195"
     transform="matrix(-0.81132187,-0.58459971,0.66042771,-0.75088963,0,0)" />
</svg>
