<?xml version="1.0" encoding="UTF-8" standalone="no"?>
<!-- http://www.clker.com/clipart-192047.html-->
<svg viewBox="-320 -240 640 480" xmlns="http://www.w3.org/2000/svg" xmlns:xlink="http://www.w3.org/1999/xlink">
 <defs>
  <linearGradient id="linearGradient3203">
   <stop stop-color="#e3cf6f" id="stop3205" offset="0"/>
   <stop stop-color="#faeca9" id="stop3207" offset="1"/>
  </linearGradient>
  <linearGradient id="linearGradient3167">
   <stop stop-color="#7d9cb7" id="stop3169" offset="0"/>
   <stop stop-color="#99c8f0" id="stop3171" offset="1"/>
  </linearGradient>
  <linearGradient id="linearGradient2320">
   <stop stop-color="#6a3c1d" id="stop2322" offset="0"/>
   <stop stop-color="#8f5127" id="stop2324" offset="1"/>
  </linearGradient>
  <linearGradient y2="0.20639" x2="0.77794" y1="0.20639" x1="0.24444" id="linearGradient2474" xlink:href="#linearGradient2320"/>
  <linearGradient y2="0.21611" x2="0.6972" y1="0.21611" x1="0.49952" id="linearGradient2478" xlink:href="#linearGradient2320"/>
  <linearGradient y2="0.49997" x2="0.73093" y1="0.49997" x1="0.0006" id="linearGradient2482" xlink:href="#linearGradient2320"/>
  <linearGradient y2="0.22947" x2="0.99957" y1="0.22947" x1="0.20637" id="linearGradient2486" xlink:href="#linearGradient2320"/>
  <linearGradient id="linearGradient3108">
   <stop stop-color="#c223c2" offset="0" id="stop3110"/>
   <stop stop-color="#ff00dc" offset="1" id="stop3112"/>
  </linearGradient>
  <linearGradient y2="0.66823" x2="0.41457" y1="0.66823" x1="0.34422" id="linearGradient2586" xlink:href="#linearGradient3108"/>
  <linearGradient y2="0.92217" x2="0.32758" y1="0.92217" x1="0.1267" id="linearGradient3173" xlink:href="#linearGradient3167"/>
  <linearGradient y2="0.36735" x2="0.79137" y1="0.36735" x1="0.59895" id="linearGradient3177" xlink:href="#linearGradient3167"/>
  <linearGradient y2="0.31363" x2="0.88452" y1="0.31363" x1="0.39556" id="linearGradient3183" xlink:href="#linearGradient3167"/>
  <linearGradient y2="0.87618" x2="1.00007" y1="0.87618" x1="0.19588" id="linearGradient3187" xlink:href="#linearGradient3167"/>
  <linearGradient y2="0.45992" x2="0.15888" y1="0.45992" x1="0.85514" id="linearGradient3191" xlink:href="#linearGradient3167"/>
  <linearGradient y2="0.31538" x2="0.36177" y1="0.31538" x1="0.61433" id="linearGradient3195" xlink:href="#linearGradient3167"/>
  <linearGradient y2="0.93099" x2="0.81274" y1="0.93099" x1="0.41313" id="linearGradient3199" xlink:href="#linearGradient3167"/>
  <linearGradient y2="0.64599" x2="0.47571" y1="0.64599" x1="0.43627" id="linearGradient3209" xlink:href="#linearGradient3203"/>
  <linearGradient y2="0.72813" x2="0.43222" y1="0.72813" x1="0.46727" id="linearGradient3213" xlink:href="#linearGradient3203"/>
  <linearGradient id="linearGradient3415">
   <stop stop-color="#1a1a1a" offset="0" id="stop3417"/>
   <stop stop-color="#2b2b2b" offset="1" id="stop3419"/>
  </linearGradient>
  <linearGradient y2="0.51655" x2="0.53369" y1="0.51655" x1="0.38067" id="linearGradient3409" xlink:href="#linearGradient3415"/>
  <filter id="filter3460">
   <feGaussianBlur id="feGaussianBlur3462" stdDeviation="2.04131"/>
  </filter>
 </defs>
 <metadata id="metadata7">image/svg+xml</metadata>
 <g transform="scale(6) translate(-68,-65)">
  <title>Layer 1</title>
  <g id="layer2">
   <path fill="#000000" fill-opacity="0.62745" fill-rule="evenodd" stroke-width="1px" filter="url(#filter3460)" id="path3215" d="m45.62242,28.69313c2.11065,6.86612 12.36587,2.6124 17.71345,5.06329c5.82829,2.60511 12.52154,1.5471 17.18895,-0.63156c-5.03821,0.53921 -11.4985,1.18987 -15.76428,-2.74235c-5.71909,-1.21964 -12.82413,0.35472 -19.13811,-1.68938zm2.20559,5.41976c-1.90301,1.64067 0.62215,7.98054 -0.7384,2.50593c-3.73434,-1.39748 -4.61836,5.14493 -8.12066,6.26651c-5.06404,4.18152 -11.82874,6.97454 -19.02599,8.83597c-3.58481,4.24773 0.86382,10.11615 -0.60699,14.93616c-0.01637,5.46563 0.39609,11.14612 -1.86154,16.13134c-0.08844,5.80547 8.8467,4.58788 13.07768,7.94337c8.67223,3.60345 15.42131,8.96785 22.09827,14.40882c6.93178,2.61817 8.97191,-6.47909 15.7395,-6.0835c10.00351,-14.74184 -1.99654,-43.77144 6.87978,-4.73796c8.99361,-24.24373 -18.39304,-31.83584 17.11361,-4.24122c3.30427,-1.79282 13.08121,-1.72147 11.24602,-5.8526c-3.91633,-5.43211 -9.30096,-10.31165 -12.51424,-15.99548c-8.32417,-18.70254 -14.85661,-15.64091 -31.76455,-25.13626c-4.29444,-2.6185 -8.08244,-5.71592 -11.52248,-8.9811zm0.12078,13.15521c0.95339,19.98494 0.94795,19.98539 0,0zm23.29745,48.36039c0.43764,0.87548 0.55917,1.11861 0,0z"/>
   <path fill="url(#linearGradient3409)" fill-rule="evenodd" stroke-width="1px" id="path3407" d="m74.60932,99.86861c0.8146,-7.82651 7.10486,-11.2458 21.28201,-8.31709l-17.12344,-36.08155c0,0 -9.05098,43.54248 -8.56174,43.54248c0.48924,0 4.40318,1.1008 4.40318,0.85616z"/>
   <path fill="url(#linearGradient2474)" fill-rule="evenodd" stroke-width="1px" id="path2472" d="m8.56216,81.03784l1.72973,5.62162l0.60541,2.24865l0.6054,-0.08649l0.95135,-0.69189l-1.29729,-6.83244l-1.2973,-0.34594l-1.2973,0.08649z"/>
   <path fill="url(#linearGradient2478)" fill-rule="evenodd" stroke-width="1px" id="path2476" d="m44.62703,111.74054l2.16216,-0.86486l0.95135,-0.08649l0.60541,6.48649l-0.95135,0.51891l-1.55676,-2.85406l-1.21081,-3.2z"/>
   <path fill="url(#linearGradient2482)" fill-rule="evenodd" stroke-width="1px" id="path2480" d="m77.83784,56.82162l-0.08649,3.89189l0.17297,14.52973l-0.08648,20.67027l0.86488,1.03783l1.29729,-0.51892l-0.25946,-25.59998l0.25946,-10.2919l-1.55676,-4.67027l-0.6054,0.95135z"/>
   <path fill="url(#linearGradient2486)" fill-rule="evenodd" stroke-width="1px" id="path2484" d="m120.04324,87.95676l0.17297,-1.64325l0.17297,-1.72971l-0.60541,-3.28651l0.86487,-0.6054l1.64324,0.6054l-0.43243,2.68109l-0.51892,3.97838l-0.77838,0.08649l-0.51891,-0.08649z"/>
   <path fill="url(#linearGradient2586)" fill-rule="evenodd" stroke-width="1px" id="path2584" d="m63.55122,11.06222l3.44715,1.06066l8.48528,0.97227l5.12653,0l2.74003,-0.35356l0.88388,0.97228l-0.7071,2.74004l0.17678,0.53033l1.50259,0.53032l5.03813,0.35356l8.48528,-0.17678l-4.77296,1.32583l-7.15945,1.23743l-2.2981,0.26517l-2.82843,-0.61872l-0.44194,-2.03293c-0.22401,-0.96619 -0.87412,-1.08018 -1.5026,-1.23744l-3.27037,0.35356l-3.8007,0.17677l-4.15425,-0.97227l-4.5962,-1.06066l-0.35355,-4.06586z"/>
   <path fill="url(#linearGradient3173)" fill-rule="evenodd" stroke-width="1px" id="path2588" d="m57.1875,62.0625l4.5625,-1.25l15,-6.0625l11.4375,-5.5625l7.75,-3.8125l-1,-0.875l-6.0625,-3.9375l-8.625,-5.5l-9.0625,-7.5l-6.6875,-9.5l-0.9375,0.3125l-0.125,2.6875l-1.5,10.875l-1.625,13.1875l-2.0625,12.125l-1.0625,4.8125z"/>
   <path fill="url(#linearGradient3177)" fill-rule="evenodd" stroke-width="1px" id="path3175" d="m30.84753,40.05359l6.0988,-1.5026l9.54594,-4.24264l6.18718,-4.41942l4.15426,-3.80069l6.62912,-7.42463l-0.08838,1.59099l-1.14905,10.25305l-1.94455,13.16987l-2.91681,18.29638l-1.85616,-0.97227l-5.48007,-3.53553l-3.80071,-2.20971l-2.38648,-1.67938l-5.56846,-4.15425l-5.56847,-6.18719l-1.5026,-1.5026l-0.35356,-1.67938z"/>
   <path fill="url(#linearGradient3183)" fill-rule="evenodd" stroke-width="1px" id="path3181" d="m21.65515,83.45227l1.14904,-2.2981l3.35876,-9.45755l3.71231,-19.79899l0.70711,-10.25305l0.79549,3.44715l0.61872,2.20971l1.14905,1.67938l1.76777,0.88388l2.74003,-0.26516l1.06067,3.62392l1.59099,2.20971l1.76776,1.32582l1.76777,0.17678l1.59099,0.35355l2.2981,-0.17677l0.26516,2.03293l0.88389,1.94454l1.41421,0.97227l3.27037,0.35356l3.71231,-0.17678l0.35355,1.41421l-0.88388,10.16466l-0.53033,20.06416l-0.61872,16.52862l-4.86136,-6.18719l-7.24784,-9.104l-5.39169,-5.12653l-5.03814,-3.35876l-6.89429,-2.56326l-4.5078,-0.61872z"/>
   <path fill="url(#linearGradient3187)" fill-rule="evenodd" stroke-width="1px" id="path3185" d="m55.59627,109.88039l0.97227,-29.52171l0.17678,-8.04334l1.23744,-10.42982c6.8574,-2.0109 12.95971,-4.77689 19.26866,-7.33624l-0.70711,3.0936l-3.09361,7.42462l-4.59618,5.3033l-4.06586,2.65166l0.17678,1.23743l2.82842,2.74004l2.47488,4.77298l1.5026,4.94974l1.14905,6.8059l0.74372,4.68459l0.5821,2.12132l-3.44715,0.08839l-5.39168,2.74004l-5.65686,3.8007l-3.62392,3.27037l-0.53033,-0.35355z"/>
   <path fill="url(#linearGradient3191)" fill-rule="evenodd" stroke-width="1px" id="path3189" d="m64.9375,73.5l1.5,1.9375l2.4375,3.5l1.0625,2.4375l1.4375,3.75l0.625,2.9375l0.75,5.1875l0.4375,2.5625l0.5,2.375l0.25,1.3125l1.875,-9.625l1.0625,-8.625l0.6875,-9.6875l0.375,-10.375l-0.25,-6.125l-0.875,1.25l-1.8125,5.875l-3.625,5.875l-4.3125,3.5625l-2.5,1.5l0.375,0.375z"/>
   <path fill="url(#linearGradient3195)" fill-rule="evenodd" stroke-width="1px" id="path3193" d="m78.125,55.125l3.0625,8.5625l2.8125,7.25l2.25,5.1875l1.5625,3.5l2.9375,4.75l4.625,6.1875l1.0625,1.125l-0.5,-3.375l-3.8125,-11.6875l-0.875,-3.5625l-0.375,-2.6875l-0.3125,-2.6875l0.625,-4.375l0.125,-0.75l-1.875,-0.1875l-4.0625,-1.3125l-4.8125,-3.9375l-2.4375,-2z"/>
   <path fill="url(#linearGradient3199)" fill-rule="evenodd" stroke-width="1px" id="path3197" d="m97,91.5625l1.6875,-1.375l4.125,-1.8125l7.25,-1.5625l-5,-10.1875l-4.75,-11.8125l-2.9375,-9.6875l-1.125,-8.5625l-2.5,-0.6875l-5.875,3.1875l-5.9375,3.0625l-4.25,2.3125l0.3125,0.9375l1.5625,1.0625l2.75,2.625l2.8125,1.8125l1.875,1l2.4375,0.625l2,0.125l-0.5,1.5625l-0.3125,2.875l0.25,3.8125l0.75,3.875l1.0625,3.875l3.0625,9.125l0.6875,4.3125l0.5625,-0.5z"/>
   <path fill="url(#linearGradient3209)" fill-rule="evenodd" stroke-width="1px" id="path3201" d="m30.8125,41.6875l0.4375,4.625l1.3125,2.4375l2.3125,1l2.75,-0.125l0.9375,3l1.5625,3l2.3125,1.3125l2.125,0.375l3.25,-0.25l0,1.5l0.875,2.25l2,1.5l2.5625,0.125l3.875,-0.125l-6.3125,-4.1875l-6.5625,-4.0625l-5.6875,-4.375l-6.5625,-7.375l-1.1875,-0.625z"/>
   <path fill="url(#linearGradient3213)" fill-rule="evenodd" stroke-width="1px" id="path3211" d="m58.29189,62.01081l2.42162,0.77838l5.18919,0.51892l3.11351,-1.21081l1.72974,-0.6919l1.98919,-1.29729l4.15135,-5.27568l1.64324,-0.17297l3.11351,0.51892l2.94055,-0.25946l2.07567,-0.60541l2.76756,-1.64324l3.97839,-4.23784l1.90271,-2.94054l-6.4865,3.11351l-8.12973,4.32433l-3.54594,1.38378l-3.45945,1.72973l-11.07028,4.4973l-3.45945,1.12432l-0.86487,0.34595z"/>
  </g>
  <g id="layer1">
   <path fill="#000000" fill-rule="evenodd" stroke-width="1px" id="path2308" d="m63.25,9.9375c0.17411,2.757 0.46146,5.65859 -0.0625,8.34375c-10.0525,12.73166 -20.11025,17.51876 -32.69696,21.8125c-6.24737,14.14499 -11.0442,29.89872 -18.64679,43.90625l-0.5625,-2.96875c-1.21659,-0.70863 -2.60665,-0.26434 -2.875,0.34375l2.25,7.59375c0.64583,-0.17462 1.29167,0.42212 1.9375,-0.53125l-0.40625,-2.65625c1.74591,0.34228 6.88795,-0.95065 9.64172,-2.17044c13.24393,1.25259 20.73314,10.84277 28.32703,20.82669c-0.56079,2.82951 -1.15393,5.65554 -1.8125,8.46875l-0.15625,-2.21875c-1.3833,-0.21649 -2.59487,0.59743 -3.875,1l2.6875,6.375c0.52083,0.04197 1.04167,0.2398 1.5625,-0.375l-0.03125,-1.90625c2.4375,-1.65625 2.83598,-4.09674 7.3125,-4.96875c6.17295,-3.59775 10.66314,-11.0868 18.84375,-10c1.46088,-8.85621 2.37564,-17.78008 2.9375,-26.71875l0.0625,22.1875c0.41119,0.87514 0.9356,0.97821 2.375,0.1875l-0.03125,-34.90625c4.6211,12.49324 9.64078,23.96516 16.40625,31c3.80846,-3.53686 7.23152,-4.4777 13.78125,-5.43497l9.5,-0.87753l0.28125,0.09375c-0.04462,0.26759 -0.17319,1.14265 -0.21149,1.41791c0.09219,1.1194 1.16601,0.27554 1.77399,0.36334l0.90625,-6.96875c-1.05931,-0.6879 -2.02625,-0.63871 -2.97128,0.15625l0.28378,0.6875c0.2833,0.76814 0.41862,1.45641 0.4375,2.09375c-0.03031,-0.0024 -0.06322,0.00205 -0.09375,0c-2.23286,-0.15004 -6.79786,-5.90763 -12.5625,-15.1875c-4.31904,-6.95276 -8.19743,-14.96986 -10.96875,-21.6875c-0.05942,-0.63859 -0.11622,-1.29219 -0.15625,-1.9375c-12.14703,-8.22837 -24.84135,-14.85953 -31.90625,-27.6875l-0.25,-2.25c4.34411,0.91307 7.4731,3.16925 13.9375,1.75c4.13609,-1.2729 2.34103,1.93984 3.5,3.21875c3.67181,1.73197 11.69107,-1.43959 17.4375,-2.375l-0.09375,-0.375c-5.08334,-0.51042 -15.88103,0.9792 -15.25,-1.53125c0.43329,-1.70372 1.36797,-3.70828 -1.59375,-3.375c-6.12953,0.50764 -12.24547,0.08089 -18.375,-1.625l-0.125,-1.0625l-0.46875,-0.03125zm0.625,1.5625c5.52687,1.70541 11.35818,2.39651 17.5625,1.84375c3.59875,-0.81621 2.43088,0.90605 1.71875,2.8125c-0.86642,3.26846 9.5321,1.38308 14.40625,1.78125c-5.04876,0.64226 -10.10749,2.74363 -15.15625,1.9375c-1.12507,-1.26035 -0.85546,-4.19663 -4.09375,-3.34375c-5.20418,1.27498 -9.33547,-0.68335 -14.0625,-1.5625l-0.375,-3.46875zm0.46875,7c6.79076,14.04195 19.53875,18.44112 30.59375,26.40625c-11.96625,6.92426 -24.06342,12.65572 -37.0625,16.8125c2.65069,-15.74367 4.16465,-29.04706 5.9375,-43.0625c0.20453,0.04687 0.39449,0.00019 0.53125,-0.15625zm-1.15625,0.5c-1.51916,14.67802 -3.01675,26.61529 -6.3125,42.71875c-3.89963,-2.69558 -9.602,-5.58559 -14.46875,-9.21875c-4.83487,-3.60936 -8.79494,-8.29152 -11.3125,-11.90625c12.73564,-3.12104 22.38718,-8.3875 32.09375,-21.59375zm-32.875,21.96875c0.02905,0.04198 0.06433,0.0829 0.09375,0.125c-1.89209,13.85894 -2.801,27.61059 -8.75,41.75c-2.28044,1.50603 -5.22198,2.98898 -9.53125,2.6875l-0.1875,-1.0625l0.03125,-0.03125c11.14062,-20.91992 12.39487,-29.22112 18.34375,-43.46875zm0.96875,1.34375c2.63922,3.45852 6.42918,7.2044 10.84375,10.5l14.21875,9.34375c-7.72878,0.74538 -8.51359,-2.26144 -8.46875,-5.21875c-9.04535,0.83366 -8.5264,-3.95874 -10.1875,-7.46875c-5.43903,0.88374 -6.07842,-2.84977 -6.40625,-7.15625zm-0.53125,0.46875c0.09107,4.60985 1.47539,8.64427 6.6875,6.875c0.53765,6.3159 4.04837,8.55894 10.125,7.59375c0.47705,7.04173 4.17635,5.61317 9.24274,5.10101c-1.65161,13.26096 -3.94698,27.14396 -6.36774,40.52399c-6.99599,-9.50059 -15.64977,-18.32436 -28.4375,-19.625c6.7446,-13.87943 7.59201,-26.9403 8.75,-40.46875zm64.6875,3.28125l-4.4375,15.75c-4.39368,1.13217 -8.3399,-3.29197 -12.25,-6.4375c-0.06055,-0.15641 -0.12613,-0.31263 -0.1875,-0.46875c8.16228,1.72895 12.60592,-2.67474 16.875,-8.84375zm-0.96875,0.25c-3.88787,3.95421 -5.03007,10.32072 -16.125,7.96875c5.21178,-2.67976 10.76684,-5.32436 16.125,-7.96875zm1.25,0.34375c0.06342,0.13515 0.12405,0.27101 0.1875,0.40625c1.63105,14.25387 7.52898,26.70724 13.46875,39.4375c-4.47932,0.94578 -8.68354,1.95393 -12.53125,4.5625c-2.02156,-9.38506 -8.06997,-18.56198 -5.34375,-28.15625c0.0613,-0.21572 -0.03176,-0.51456 -0.0625,-0.78125c0.66816,-5.26467 2.84972,-10.31313 4.28125,-15.46875zm1.0625,2.25c6.05514,12.89438 12.42128,26.05246 23.1875,36.3125c-2.90397,1.04138 -5.83122,1.86416 -9.5625,1.21875c-6.31603,-12.10184 -12.01477,-24.11395 -13.625,-37.53125zm-20.4375,6.125c-1.66738,2.48412 -2.92132,4.51134 -5.59375,6.25c-2.66653,1.46235 -8.07724,2.45678 -12.09375,0.78125c6.02629,-2.03746 11.89934,-4.42311 17.6875,-7.03125zm0.34375,0.375c-1.81563,7.63427 -3.79476,12.5058 -12.375,17.4375c-2.00442,-3.21011 -4.49192,-6.30017 -6.25,-9.65625c0.04763,-0.3244 0.10556,-0.64409 0.15625,-0.96875c0.11563,-0.0387 0.22823,-0.08603 0.34375,-0.125c4.16492,1.81555 8.48439,1.89772 11.375,0.3125c2.61859,-1.43605 4.69807,-4.28956 6.75,-7zm2.53125,1.09375c3.3497,3.26844 6.61818,6.36982 11.6875,6.4375c-1.64165,10.14137 3.10243,18.62842 5.1875,27.6875c-9.95566,-9.71922 -12.43494,-22.26143 -16.875,-34.125zm-1.78125,0.25c0.49889,14.25211 -0.94435,28.50636 -3.5,42.21875c-1.65916,-9.51083 -1.62333,-18.0139 -8.75,-25.46875c7.12964,-3.34033 9.91079,-9.83253 12.25,-16.75zm0.875,0.09375c0.43989,1.22972 0.89823,2.44085 1.34375,3.65625l-0.21875,35.6875c-0.53268,0.65916 -0.58316,0.52971 -1.21875,-0.09375l-0.15625,-30.28125c0.1174,-2.98732 0.19624,-5.97823 0.25,-8.96875zm-21.09375,5.71875c-1.10032,15.73735 -1.30527,31.45137 -1.96875,47.21875c-1.46298,-2.17568 -2.95667,-4.39823 -4.5625,-6.59375c2.55386,-13.51366 4.24181,-27.04884 6.375,-40.5625c0.05328,-0.01735 0.10299,-0.04509 0.15625,-0.0625zm0.8125,1c1.7952,3.36649 4.12864,6.36227 6.1875,9.59375c-0.33778,0.48122 -0.14679,1.02853 0.4375,1.625c7.9425,6.24749 6.99494,16.10175 9.1875,24.84375c-6.83466,1.00952 -12.38984,5.79115 -17.90625,9.96875c1.01068,-15.20232 -0.13678,-30.46807 2.09375,-46.03125zm-46.8848,18.17078l0.16605,2.79797c-0.40427,0.17915 -0.88243,0.13909 -1.21875,0.34375l-1.07922,-3.06723c0.64824,-0.19124 1.1635,-0.73707 2.13192,-0.07449zm108.92112,0.05778c0.44791,-1.23054 1.63097,-0.47993 2.07887,-0.27146l-0.64645,2.91791c-0.31107,-0.20925 -0.69128,-0.26811 -1.09375,-0.3125l-0.33868,-2.33395zm-108.69257,3.08395l0.125,0.59375c-0.2489,-0.02659 -0.49208,-0.05521 -0.75,-0.09375l0.625,-0.5zm110.03125,0.15625l-0.25,1.5l-0.75,-1.0625l1,-0.4375zm-111.15625,0.4375l0.9375,0.53125l0.375,-0.09375l0.38699,2.13446c-0.26041,0.80845 -0.91002,0.32058 -1.17044,0.40152l-0.52905,-2.97348zm110.03125,0.96875l0.84375,0.28125l-0.15625,1.0625c-0.52249,0.27332 -0.68519,0.00694 -0.75,-0.40625l0.0625,-0.9375zm-69.90625,18.3125c1.46683,1.97271 2.94465,3.92616 4.46875,5.78125c-3.39993,1.35043 -4.11387,3.16289 -6.28125,4.71875l-0.125,-1.15625c0.72209,-3.11261 1.33287,-6.23114 1.9375,-9.34375zm-2.81976,6.52432l0.22601,2.63193l-1.6875,0.78125l-1.125,-2.625c0.27117,-0.32014 1.75315,-1.42133 2.58649,-0.78818zm-0.08649,3.44443l-0.6875,1.53125l-0.65625,-1.5l1.34375,-0.03125zm0.45676,0.32703l0.07449,0.48547l-0.91064,0.51419l0.83615,-0.99966zm0.16824,0.98547l0.125,0.9375l-0.8125,0.6875l-0.59375,-1.34375l1.28125,-0.28125z"/>
  </g>
 </g>
</svg>