<?xml version="1.0" encoding="UTF-8" standalone="no"?>
<!-- Created with Inkscape (http://www.inkscape.org/) -->

<svg
   xmlns:dc="http://purl.org/dc/elements/1.1/"
   xmlns:cc="http://creativecommons.org/ns#"
   xmlns:rdf="http://www.w3.org/1999/02/22-rdf-syntax-ns#"
   xmlns:svg="http://www.w3.org/2000/svg"
   xmlns="http://www.w3.org/2000/svg"
   xmlns:sodipodi="http://sodipodi.sourceforge.net/DTD/sodipodi-0.dtd"
   xmlns:inkscape="http://www.inkscape.org/namespaces/inkscape"
   width="744.09448819"
   height="1052.3622047"
   id="svg2"
   version="1.1"
   inkscape:version="0.48.2 r9819"
   sodipodi:docname="New document 1">
  <defs
     id="defs4" />
  <sodipodi:namedview
     id="base"
     pagecolor="#ffffff"
     bordercolor="#666666"
     borderopacity="1.0"
     inkscape:pageopacity="0.0"
     inkscape:pageshadow="2"
     inkscape:zoom="0.98994949"
     inkscape:cx="335.80157"
     inkscape:cy="538.52548"
     inkscape:document-units="px"
     inkscape:current-layer="layer1"
     showgrid="false"
     inkscape:window-width="1440"
     inkscape:window-height="880"
     inkscape:window-x="1272"
     inkscape:window-y="-8"
     inkscape:window-maximized="1" />
  <metadata
     id="metadata7">
    <rdf:RDF>
      <cc:Work
         rdf:about="">
        <dc:format>image/svg+xml</dc:format>
        <dc:type
           rdf:resource="http://purl.org/dc/dcmitype/StillImage" />
        <dc:title></dc:title>
      </cc:Work>
    </rdf:RDF>
  </metadata>
  <g
     inkscape:label="Layer 1"
     inkscape:groupmode="layer"
     id="layer1">
    <path
       style="fill:#808080;stroke:#000000;stroke-width:1px;stroke-linecap:butt;stroke-linejoin:miter;stroke-opacity:1"
       d="m 170.71429,408.79075 c 0,0 2.14285,-49.28571 28.57142,-47.14285 C 225.71429,363.79075 220,410.21932 220,410.21932 z"
       id="path2989"
       inkscape:connector-curvature="0" />
    <path
       style="fill:#deaa87;stroke:#000000;stroke-width:1px;stroke-linecap:butt;stroke-linejoin:miter;stroke-opacity:1"
       d="m 172.85714,408.25504 -0.17857,25.71428 c 0,0 0.53572,9.28572 13.03572,11.60715 12.5,2.32143 27.67857,2.5 30.89285,-7.85715 3.21429,-10.35714 1.07143,-27.32142 1.07143,-27.32142 z"
       id="path2993"
       inkscape:connector-curvature="0" />
    <path
       style="fill:#808080;stroke:#000000;stroke-width:1px;stroke-linecap:butt;stroke-linejoin:miter;stroke-opacity:1"
       d="M 199.64286,410.04075 196.42857,434.68361 210,434.32647 206.42857,410.75504 z"
       id="path2991"
       inkscape:connector-curvature="0" />
    <path
       style="fill:none;stroke:#000000;stroke-width:1px;stroke-linecap:butt;stroke-linejoin:miter;stroke-opacity:1"
       d="m 194.4448,411.61354 -11.07143,0.89286"
       id="path2995"
       inkscape:connector-curvature="0" />
    <path
       style="fill:none;stroke:#000000;stroke-width:1px;stroke-linecap:butt;stroke-linejoin:miter;stroke-opacity:1"
       d="m 211.66163,412.70663 8.92857,1.78572"
       id="path2997"
       inkscape:connector-curvature="0" />
    <path
       style="fill:none;stroke:#000000;stroke-width:1px;stroke-linecap:butt;stroke-linejoin:miter;stroke-opacity:1"
       d="m 187.67857,438.61218 18.03572,-0.89286"
       id="path2999"
       inkscape:connector-curvature="0" />
    <path
       style="fill:#666666;stroke:#000000;stroke-width:1px;stroke-linecap:butt;stroke-linejoin:miter;stroke-opacity:1"
       d="m 177.78685,409.02128 2.14657,19.31917 -11.74302,-0.25254 2.39911,-19.57171"
       id="path3001"
       inkscape:connector-curvature="0" />
    <path
       style="fill:#999999;stroke:#000000;stroke-width:1px;stroke-linecap:butt;stroke-linejoin:miter;stroke-opacity:1"
       d="m 175.26147,450.81634 44.44671,0 5.55584,54.04316 -51.01271,-3.53553 z"
       id="path3003"
       inkscape:connector-curvature="0" />
    <path
       style="fill:#552200;stroke:#000000;stroke-width:1px;stroke-linecap:butt;stroke-linejoin:miter;stroke-opacity:1"
       d="m 218.69803,505.36458 -2.52538,31.81981 -16.16244,1.01015 -0.50508,-34.85026 -3.03046,35.35534 -20.70812,-1.51523 1.51523,-35.35534 21.71828,1.01015 0.50507,-1.01015"
       id="path3007"
       inkscape:connector-curvature="0" />
    <path
       style="fill:#666666;stroke:#000000;stroke-width:1px;stroke-linecap:butt;stroke-linejoin:miter;stroke-opacity:1"
       d="m 145.46197,452.83665 49.49747,10.6066 c 0,0 -5.55584,50.00255 -39.90102,63.63961 -34.34519,13.63706 -9.59645,-74.24621 -9.59645,-74.24621 z"
       id="path3005"
       inkscape:connector-curvature="0" />
    <rect
       style="fill:#5c2800;fill-opacity:1;stroke:#000000;stroke-width:2;stroke-miterlimit:4;stroke-opacity:1;stroke-dasharray:none"
       id="rect3012"
       width="2.0203052"
       height="132.32999"
       x="232.33507"
       y="406.36963" />
    <path
       style="fill:#1a1a1a;stroke:#000000;stroke-width:1px;stroke-linecap:butt;stroke-linejoin:miter;stroke-opacity:1"
       d="m 213.64726,536.67931 c 0,0 13.63706,2.52538 10.60661,9.59645 -3.03046,7.07106 -23.23351,-2.52538 -23.23351,-2.52538 l -1.51523,-6.06092 z"
       id="path3014"
       inkscape:connector-curvature="0" />
    <path
       style="fill:#1a1a1a;stroke:#000000;stroke-width:1px;stroke-linecap:butt;stroke-linejoin:miter;stroke-opacity:1"
       d="m 179.80715,538.19454 -5.55584,11.61675 c 0,0 -1.51522,11.61676 7.07107,8.5863 8.5863,-3.03046 13.13199,-20.20305 13.13199,-20.20305 z"
       id="path3016"
       inkscape:connector-curvature="0" />
    <path
       sodipodi:type="star"
       style="fill:#666666;fill-opacity:1;stroke:#000000;stroke-width:2;stroke-miterlimit:4;stroke-opacity:1;stroke-dasharray:none"
       id="path3018"
       sodipodi:sides="3"
       sodipodi:cx="313.65237"
       sodipodi:cy="393.23764"
       sodipodi:r1="47.750416"
       sodipodi:r2="23.875208"
       sodipodi:arg1="2.7394786"
       sodipodi:arg2="3.7866762"
       inkscape:flatsided="true"
       inkscape:rounded="0"
       inkscape:randomized="0"
       d="m 269.71074,411.92546 49.72832,-66.08631 32.36826,76.10915 z"
       inkscape:transform-center-x="0.25517198"
       inkscape:transform-center-y="-6.0758407"
       transform="matrix(0.08819401,0,0,0.65024587,206.02284,141.01217)" />
    <path
       style="fill:#aa0000;stroke:#000000;stroke-width:0.76516271px;stroke-linecap:butt;stroke-linejoin:miter;stroke-opacity:1"
       d="m 149.74408,458.31395 35.50343,8.65758 c 0,0 -3.98508,40.81431 -28.62011,51.94548 -24.63504,11.13118 -6.88332,-60.60306 -6.88332,-60.60306 z"
       id="path3005-1"
       inkscape:connector-curvature="0" />
  </g>
</svg>
