<?xml version="1.0" encoding="UTF-8" standalone="no"?>
<!-- http://www.clker.com/clipart-192047.html-->
<svg viewBox="-320 -240 640 480" xmlns="http://www.w3.org/2000/svg" xmlns:xlink="http://www.w3.org/1999/xlink">
 <defs>
  <filter id="filter2972">
   <feGaussianBlur id="feGaussianBlur2974" stdDeviation="1.38556"/>
  </filter>
  <linearGradient id="linearGradient2338">
   <stop stop-color="#b1b1b1" offset="0" id="stop2340"/>
   <stop stop-color="#e4e4e4" offset="1" id="stop2342"/>
  </linearGradient>
  <linearGradient y2="0.88458" x2="0.67971" y1="0.88458" x1="0.32174" id="linearGradient3068" xlink:href="#linearGradient2338"/>
  <linearGradient y2="0.80238" x2="0.40657" y1="0.80238" x1="0.30767" id="linearGradient3072" xlink:href="#linearGradient2338"/>
  <linearGradient y2="0.99989" x2="0.49996" y1="0.99989" x1="0.49996" id="linearGradient3076" xlink:href="#linearGradient2338"/>
  <linearGradient y2="0.8782" x2="1.00005" y1="0.8782" x1="0.25518" id="linearGradient2342" xlink:href="#linearGradient2338"/>
  <linearGradient y2="0.80164" x2="0.72044" y1="0.80164" x1="0.41931" id="linearGradient2346" xlink:href="#linearGradient2338"/>
  <filter id="filter2946">
   <feGaussianBlur id="feGaussianBlur2948" stdDeviation="0.58541"/>
  </filter>
  <filter id="filter2985">
   <feGaussianBlur id="feGaussianBlur2987" stdDeviation="0.63972"/>
  </filter>
  <linearGradient y2="0.97815" x2="0.9999" y1="0.97815" x1="0.30533" id="linearGradient2991" xlink:href="#linearGradient2338"/>
  <linearGradient y2="0.7409" x2="0.74185" y1="0.7409" x1="0.24136" id="linearGradient2995" xlink:href="#linearGradient2338"/>
  <filter id="filter3055">
   <feGaussianBlur id="feGaussianBlur3057" stdDeviation="0.51065"/>
  </filter>
  <linearGradient y2="0.87931" x2="0.65421" y1="0.87931" x1="0.5" id="linearGradient3061" xlink:href="#linearGradient2338"/>
  <linearGradient y2="0.93993" x2="0.66946" y1="0.93993" x1="0.35565" id="linearGradient3065" xlink:href="#linearGradient2338"/>
  <linearGradient y2="0.92991" x2="0.69608" y1="0.92991" x1="0.2451" id="linearGradient3069" xlink:href="#linearGradient2338"/>
  <filter id="filter3102">
   <feGaussianBlur id="feGaussianBlur3104" stdDeviation="0.51472"/>
  </filter>
  <linearGradient y2="0.90981" x2="0.88642" y1="0.90981" x1="0.36749" id="linearGradient3108" xlink:href="#linearGradient2338"/>
  <linearGradient y2="0.86051" x2="0.79712" y1="0.86051" x1="0.26079" id="linearGradient3112" xlink:href="#linearGradient2338"/>
  <filter id="filter3136">
   <feGaussianBlur id="feGaussianBlur3138" stdDeviation="0.57215"/>
  </filter>
 </defs>
 <metadata id="metadata7">image/svg+xml</metadata>
 <g transform="scale(5) translate(-68,-65)">
  <title>Layer 1</title>
  <g id="layer2">
   <path fill="#800000" fill-opacity="0.70588" stroke-width="0.89514" stroke-miterlimit="4" filter="url(#filter2972)" id="path2309" d="m66.84375,38.46875c-1.05119,0.00592 -2.10524,0.03302 -3.15625,0.0625c-12.93025,0.43485 -27.06571,5.08603 -35.03125,15.3125c-0.18376,0.94656 -0.33775,1.877 -0.5,2.8125l1.34375,3c0.61627,-3.28141 0.40121,-6.95731 3.84375,-8.71875c0.56737,-0.20063 1.57178,-2.24695 2.21875,-2.34375c0.1493,-0.02234 0.27256,0.04935 0.375,0.28125c4.125,5.05208 9.46875,11.32292 13.59375,16.375c-5.67853,3.72293 -14.36504,8.95174 -20,12.59375c-0.04174,-0.18281 -0.08089,-0.40577 -0.125,-0.59375l0.15625,1.84375c5.91019,0.03798 22.99333,-2.64147 28.65625,-2.375c2.55657,3.04674 8.41219,9.01576 10.96875,12.0625c-0.10763,0.44853 -0.17188,0.9196 -0.25,1.375l0.96875,-2.65625c-0.10633,-0.17593 -0.19174,-0.32937 -0.3125,-0.5625c-4.02577,-3.29534 -7.37693,-8.89323 -9.34375,-11.125c2.141,-0.20312 8.40191,-1.17783 10.4375,-0.84375l0.03125,-1.28125c-4.90409,-0.27552 -9.41449,0.76006 -11.5625,0.53125c-1.94894,-1.53365 -4.88983,-5.52557 -6.9375,-9.21875c4.68289,-2.90709 9.73567,-5.64473 11.5,-6.65625c1.05328,0.34972 8.91291,2.74543 10.375,3.21875l0.46875,-0.6875l2.9375,-0.34375l3.625,8.125l0.5625,4.84375c7.19055,-0.8548 17.66344,-2.36736 24.59375,-2.34375c-1.75611,10.23312 -15.04491,17.98362 -24.21875,21.3125l0.625,1.5625c1.1841,-0.42445 3.23246,-1.02198 4.46875,-1.34375c11.34533,-4.36684 22.64055,-14.69471 20.59375,-28.0625c-2.0498,-14.96534 -18.02306,-23.00732 -31.5,-25.5c-3.1067,-0.53619 -6.25269,-0.67402 -9.40625,-0.65625zm-37.28125,40.625l0.1875,1.84375l-1.3125,-0.75c0.17198,0.62141 0.35638,1.25019 0.5625,1.875c9.34162,10.56428 25.13816,14.26983 38.6875,15c0.36156,0.05215 0.70986,0.09473 1.0625,0.125l-1.25,-2.1875c-0.0715,0.09673 -0.138,0.19135 -0.21875,0.28125c-11.82069,-0.39807 -27.76151,-5.07634 -36.28125,-13.53125c-0.16724,-1.81879 -0.82146,-2.48463 -1.4375,-2.65625zm34.84375,-39.21875c5.71595,0.04745 13.08325,0.98454 18.5,2.75c-6.51042,4.27083 -13.36459,9.60417 -19.875,13.875c-8.36459,-2.59375 -18.29167,-5.71875 -26.65625,-8.3125c8.2253,-5.27385 18.30912,-8.27322 28.03125,-8.3125zm19.65625,3.28125c9.08101,3.48981 19.99679,10.54585 21.875,20.6875c-0.58722,2.56559 1.03561,3.96499 0.03125,6.375c-7.13354,-2.59 -19.90963,-5.76513 -26.25,-9.15625c0.23798,-5.5382 3.0292,-12.64694 4.34375,-17.90625zm-2.34375,2.21875c-0.80457,3.77649 -3.89263,13.17549 -3.53125,14.84375c-3.6725,0.72346 -9.77778,-1.98839 -14.0625,-3.46875c1.42818,-1.53598 14.96755,-8.38136 17.59375,-11.375zm-43.03125,4.53125c0.70078,0.5071 6.68477,1.96124 10.5,3.625c3.70924,1.15804 7.94701,2.84196 11.65625,4c-3.2317,2.19234 -7.65859,5.73993 -10.15625,6.625c-2.14491,-4.20023 -8.85375,-9.57687 -12,-14.25zm41.71875,13.65625c4.71217,1.40955 17.03783,5.0592 21.75,6.46875c-5.00053,0.15343 -16.64126,1.37769 -20.125,1.375c-1.14171,-3.3002 -0.60556,-5.57764 -1.625,-7.84375zm-29.46875,2.5c2.0625,2.6875 4.125,6.0625 6.1875,8.75c-7.25,0.66667 -17.28125,2.20834 -24.53125,2.875c5.1875,-3.35416 13.15625,-8.27084 18.34375,-11.625z"/>
   <path fill="#000000" fill-rule="evenodd" stroke-width="1px" filter="url(#filter2985)" fill-opacity="0.62745" id="path2950" d="m69.10127,77.67195l-1.56836,0.33548l-2.74955,0.87767l-1.29085,1.31748l-0.87061,2.34366c0,0 0.01227,3.36015 0.26321,3.59079c0.25095,0.23065 0.86646,2.74729 0.86646,2.74729l0.49111,2.98633l0.17096,3.40038l-0.69878,4.01139l0.50221,1.59235l-0.58663,-0.53295l-2.39867,0.76526l-1.52738,0.97581l0.21286,0.87909l0.94776,0.75922l2.09109,0.50534l1.31367,-0.12223l2.38211,-0.81775l1.42092,-0.70087l-2.01856,-0.58156l-1.4855,-0.83102c0.39954,0.14262 1.71776,0.62104 2.3773,1.00449c0.76377,0.44405 2.867,0.31135 2.867,0.31135l3.90863,-0.0609l4.32652,0.44745l3.56407,-0.23469l1.98393,-1.05945l0.73103,-2.17371l-1.75827,-2.20628l-1.64399,-1.2314l-0.38079,-1.20741l-2.50718,-6.62247l-2.30227,-4.13528l-1.78116,-1.97256l-1.1086,-0.963l-1.04077,-1.36044l-2.70292,-2.0369z"/>
   <path fill="url(#linearGradient3068)" fill-rule="evenodd" stroke-width="1px" id="path3066" d="m65.81622,96.51892l1.90269,-6.91892l0.86488,-5.96757l0.43242,-5.27567c0,0 0.17298,-4.4973 0,-4.92974c-0.17297,-0.43242 0.86487,-6.31351 0.86487,-6.31351l1.55676,-3.97837l1.64323,-2.16217l2.94054,-1.21081l1.64324,-0.43243l1.98919,3.89189l0.60541,2.50811l0.77838,1.81621l1.12432,3.63245l0.95135,7.52433l0.43242,11.84864l0,2.16216l1.21082,2.33514l1.03783,4.06486l-1.38378,3.71892l-2.24865,1.64325c-1.18198,0.23444 -2.36398,0.5681 -3.54594,0l-4.06487,-1.29729l-3.8054,-0.34595c0,0 -2.07568,0 -2.68108,-0.86486c-0.60542,-0.86487 -2.24865,-2.24865 -2.24865,-2.24865l0,-3.2z"/>
   <path fill="url(#linearGradient3072)" fill-rule="evenodd" stroke-width="1px" id="path3070" d="m65.40738,98.3899l-2.56326,1.06066l-1.76777,1.50261l-0.08839,1.59099l0.70711,1.41421l1.85615,1.14906l1.32582,-0.08839l2.56327,-1.14905l1.591,-1.06066l-1.76778,-1.23744l-1.23743,-1.67937l-0.61871,-1.5026z"/>
   <path fill="url(#linearGradient3076)" fill-rule="evenodd" stroke-width="1px" id="path3074" d="m84.76443,94.67759l1.67937,0.44195l2.20971,-0.08839l0.7955,0.53033l-0.08839,1.94454l0.26517,1.14905l-0.7955,0.61872l-3.18198,0.53033l-0.08839,-2.65165l-0.79549,-2.47488z"/>
   <path fill="#000000" fill-opacity="0.62745" fill-rule="evenodd" stroke-width="1px" filter="url(#filter2946)" id="path2348" d="m14.98701,62.1775l-1.07709,0.46811l-1.39886,1.21107l-0.27893,2.39149l0.14393,3.94709l-1.31729,3.26096l-1.07612,2.65578l1.65615,4.97646c0,0 1.4385,3.84748 1.50975,4.06155c0.07124,0.21408 2.24267,1.32447 2.24267,1.32447l-0.07556,-0.22707l0.98768,0.78307l1.68445,0.312l2.24455,0.00024l2.35537,-0.42667l2.52886,-0.7603l3.90818,-2.22001l-1.07336,-4.08017l-1.50313,-3.9467l-0.00537,-1.63095l-0.9959,-3.27747l-1.99618,-4.09839l-1.58969,-1.83207l-2.64947,-1.78688l-2.65921,-0.96127l-1.56543,-0.14435zm-3.59373,23.87255l-1.1895,0.41534l-0.71973,1.06696l-0.04753,0.71207l1.73073,1.11602l1.25341,0.06168l1.85131,-0.13651l2.47312,-0.64277l1.02735,-0.42762l-1.24398,-0.98325l-1.21721,-0.42786l-3.91797,-0.75408z"/>
   <path fill="url(#linearGradient2342)" fill-rule="evenodd" stroke-width="1px" id="path2340" d="m15.99829,85.92715c0,0 -1.76777,-1.94455 -1.76777,-2.2981c0,-0.35355 -0.17677,-6.71751 -0.17677,-6.71751l0,-8.22012l1.94454,-4.24265l2.38649,-5.2149l1.14904,-6.45235l1.06066,-3.88909l1.76777,-1.85616l1.23744,-0.7071l1.5026,0.35355l2.2981,1.76777l2.03293,3.09359l0.97227,3.09359l0.61872,6.8059l-0.08839,5.3917l-0.53033,2.65165l0.17678,6.54073l-0.26517,6.71751l-4.59619,3.35876l-2.74004,1.06066l-2.47487,0.53034l-2.20971,-0.17678l-1.59099,-0.61872l-0.70711,-1.32583l0,0.35355z"/>
   <path fill="url(#linearGradient2346)" fill-rule="evenodd" stroke-width="1px" id="path2344" d="m15.82151,86.45747l-3.62392,-1.5026l-1.32582,0.61872l-1.06066,1.67939l-0.26517,1.14904l1.32583,1.94455l1.23743,0.17677l1.85616,-0.08839l2.65165,-0.88388l1.14905,-0.61872l-0.88389,-1.67937l-1.06066,-0.79551z"/>
   <path fill="#000000" fill-rule="evenodd" stroke-width="1px" filter="url(#filter3055)" fill-opacity="0.62745" d="m28.70235,47.28606l-2.73506,-2.33065l-1.73051,-3.13437l-0.2261,-2.6695l0.99066,-2.32209l0.1974,-0.85316c0,0 -0.95778,-3.75262 -1.23609,-4.78134c-0.2783,-1.02873 -0.79206,-3.81569 -0.79206,-3.81569l1.72806,-4.09395l1.59105,-0.50823l0.95052,-0.1348l1.91402,0.76285l3.60922,2.7436l1.23518,4.29541l0.57051,3.57582l1.1422,1.86702l2.12714,2.3999l1.00155,3.50904l-0.69092,2.98606l-0.27468,0.91498l-2.81715,1.07209c0,0 -1.8452,0.57252 -2.19896,0.57748c-0.35377,0.00495 -2.52014,0.27827 -2.52014,0.27827l-1.83584,-0.33874z" id="path2997"/>
   <path fill="url(#linearGradient2991)" fill-rule="evenodd" stroke-width="1px" id="path2989" d="m29.34493,46.59433l-2.2981,-3.44714l-1.14904,-4.5962l0.26516,-3.88909l1.41422,-3.35875l0.35355,-1.23744c0,0 -0.26517,-5.48008 -0.35355,-6.98268c-0.08839,-1.5026 -0.08839,-5.56847 -0.08839,-5.56847l2.47487,-5.92201l1.67938,-0.70711l0.97227,-0.17678l1.76777,1.14905l3.09359,4.06587l0.44194,6.27557l-0.08839,5.21491l0.7955,2.74004l1.67938,3.53553l0.35355,5.12653l-1.23744,4.33103l-0.44194,1.32582l-3.0052,1.5026c0,0 -1.94455,0.7955 -2.2981,0.7955c-0.35355,0 -2.56326,0.35355 -2.56326,0.35355l-1.76777,-0.53033z"/>
   <path fill="url(#linearGradient2995)" fill-rule="evenodd" stroke-width="1px" id="path2993" d="m40.65864,42.44008l1.23744,0.53033l2.82842,-0.88389c0,0 0.97228,-0.35355 0.88389,-0.79549c-0.08839,-0.44194 -0.7955,-1.76776 -0.7955,-1.76776c0,0 -0.61871,-1.32583 -0.97227,-1.32583c-0.35355,0 -2.47487,0.17677 -2.47487,0.17677l-0.88389,0.61873l0.17678,3.44714z"/>
   <path fill="#000000" fill-rule="evenodd" stroke-width="1px" fill-opacity="0.62745" filter="url(#filter3102)" id="path3071" d="m77.49213,17.6643l-1.27831,1.16501l-0.26483,1.72531l-2.07565,2.09633l1.67096,5.58993l0.51332,2.8583l1.21253,2.88629c0,0 0.43033,1.03426 0.73287,1.71154l-0.15027,-0.24682l-3.93315,0.92359l-0.71635,0.80637c0,0 1.35385,0.813 1.53088,0.95869c0.17703,0.14568 2.05306,0.841 2.05306,0.841l1.83208,-0.13455c0,0 1.3998,-0.29562 1.73293,-0.32563c0.0052,0.00329 0.02538,-0.0054 0.03053,-0.00224c0.06023,0.03699 0.1124,0.08886 0.16331,0.10702l2.1203,0.67738l2.89909,0.22347c0,0 2.34055,-0.29091 3.13443,-0.34922c0.79391,-0.0583 1.6674,-0.59851 1.6674,-0.59851l-0.35959,-1.71912l0.40961,-1.14088l2.10243,-0.4321l-0.71707,-1.13747l-2.40372,-2.00539l-1.87398,-1.92527l-2.95,-6.36877l-3.29303,-3.80461l-2.08465,-1.98915l-1.70515,-0.3905z"/>
   <path fill="url(#linearGradient3061)" fill-rule="evenodd" stroke-width="1px" id="path3059" d="m80.5,38.625c-0.3125,0 -1.875,0.3125 -1.875,0.3125l-1.875,0c0,0 -1.625,-1.3125 -1.75,-1.5625c-0.125,-0.25 -1.1875,-1.6875 -1.1875,-1.6875l1,-1.1875l4.25,-1l0.375,2.3125l1.0625,2.8125z"/>
   <path fill="url(#linearGradient3065)" fill-rule="evenodd" stroke-width="1px" id="path3063" d="m80.625,38.8125c-0.5625,-0.4375 -1.375,-3.5625 -1.4375,-3.9375c-0.0625,-0.375 -0.1875,-3.75 -0.1875,-3.75l-0.1875,-4.6875l0.5,-4.5625l0.3125,-9l2.8125,-3.0625l0.875,-2.6875l1.6875,-1.6875l1.5625,0.8125l1.375,3.375l1.9375,6.375l0.6875,10.375l1.1875,3.25l1.6875,3.4375l0.3125,1.875l-2.25,0.4375l-0.8125,1.75l-0.25,2.75c0,0 -1.0625,0.75 -1.875,0.75c-0.8125,0 -3.25,0.1875 -3.25,0.1875l-2.8125,-0.6875l-1.875,-1.3125z"/>
   <path fill="url(#linearGradient3069)" fill-rule="evenodd" stroke-width="1px" id="path3067" d="m92.8125,34.8125l-1.875,1.1875l-0.4375,3.375l0.375,1.625c0,0 0.6875,0.4375 0.9375,0.4375c0.25,0 2.375,0.0625 2.375,0.0625l1.3125,-0.3125l1.375,-1.625l-0.1875,-2.3125l-1.5,-1.6875l-2.375,-0.75z"/>
   <path fill="#000000" fill-rule="evenodd" stroke-width="1px" fill-opacity="0.62745" filter="url(#filter3136)" d="m116.72013,76.77116c-0.9317,-0.08488 -4.9123,-0.40047 -4.9123,-0.40047l-3.25704,-1.82362l-2.55973,-3.04121l-0.83692,-2.80059l0.85958,-2.26954l-4.10547,-6.35084l0.9647,-3.43127l1.10188,-4.02012l1.32264,-0.52791l2.54132,0.27859l2.77459,1.4084l1.59369,2.03811l1.38,3.84359l0.95242,3.19283l1.22672,2.01514l2.35508,1.96629l3.29134,2.74183l1.60174,3.24677l-0.15997,1.39727l-0.44352,1.19365l-0.81277,0.82536l-1.60617,0.3243l-3.2718,0.19344z" id="path3114"/>
   <path fill="url(#linearGradient3108)" fill-rule="evenodd" stroke-width="1px" id="path3106" d="m114.5513,76.29282c-0.88388,-0.26517 -4.68458,-1.32584 -4.68458,-1.32584l-2.2981,-3.27037l-0.97227,-5.03812l0.61872,-4.41942l2.03293,-3.35876l-0.7955,-10.34143l2.74004,-5.12653l3.18198,-6.01041l1.59099,-0.61871l2.38649,0.79549l2.03294,2.56326l0.53033,3.35876l-0.61872,6.0988l-0.70711,5.03813l0.17678,3.27037l1.32583,3.35876l1.85615,4.68458l-0.08839,5.21491l-0.88388,2.12132l-1.06066,1.76777l-1.23744,1.14905l-1.76777,0.26517l-3.35875,-0.17677z"/>
   <path fill="url(#linearGradient3112)" fill-rule="evenodd" stroke-width="1px" id="path3110" d="m122.77142,71.16629l1.85615,0.08839l0.88388,0l0.17678,2.65165l0.97227,1.67938l-1.85615,0.70712l-1.59099,0.26516l-1.41422,0l-1.23743,-1.14904l0.97227,-0.97228l1.23744,-3.27037z"/>
   <path fill="#000000" fill-rule="evenodd" stroke-width="1px" fill-opacity="0.15686" d="m65.40738,98.3899l-2.56326,1.06066l-1.76777,1.50261l-0.08839,1.59099l0.70711,1.41421l1.85615,1.14906l1.32582,-0.08839l2.56327,-1.14905l1.591,-1.06066l-1.76778,-1.23744l-1.23743,-1.67937l-0.61871,-1.5026z" id="path3140"/>
   <path fill="#000000" fill-rule="evenodd" stroke-width="1px" fill-opacity="0.15686" d="m15.82151,86.45747l-3.62392,-1.5026l-1.32582,0.61872l-1.06066,1.67939l-0.26517,1.14904l1.32583,1.94455l1.23743,0.17677l1.85616,-0.08839l2.65165,-0.88388l1.14905,-0.61872l-0.88389,-1.67937l-1.06066,-0.79551z" id="path3142"/>
   <path fill="#000000" fill-rule="evenodd" stroke-width="1px" fill-opacity="0.15686" d="m80.5,38.625c-0.3125,0 -1.875,0.3125 -1.875,0.3125l-1.875,0c0,0 -1.625,-1.3125 -1.75,-1.5625c-0.125,-0.25 -1.1875,-1.6875 -1.1875,-1.6875l1,-1.1875l4.25,-1l0.375,2.3125l1.0625,2.8125z" id="path3144"/>
   <path fill="#000000" fill-rule="evenodd" stroke-width="1px" fill-opacity="0.15686" id="path3146" d="m16.25,67.875c-0.52358,-0.5016 -1.0624,-0.89655 -1.75,-0.25l2,-4.125l0.25,0.1875l-0.625,2.125l0.125,2.0625z"/>
   <path fill="#000000" fill-rule="evenodd" stroke-width="1px" fill-opacity="0.15686" id="path3148" d="m28.125,65.8125l1.5625,-3l-1.4375,-4.9375c-1.07431,1.46609 -3.12757,2.35633 -1.5625,5.375c1.15894,0.56284 1.4378,1.50285 1.4375,2.5625z"/>
   <path fill="#000000" fill-rule="evenodd" stroke-width="1px" fill-opacity="0.15686" id="path3150" d="m27,48.4375c0.00725,1.92754 0.4496,3.79292 -0.625,5.875c0.81694,-0.68133 1.39632,0.53773 2.0625,1.0625c0.3597,-2.14583 0.07037,-1.91667 -0.3125,-4.0625l-1.125,-2.875z"/>
   <path fill="#000000" fill-rule="evenodd" stroke-width="1px" fill-opacity="0.15686" id="path3152" d="m22.5625,80.875l0.125,3.125l2.125,2.125l-3.6875,1.3125c0.68699,-0.55662 1.88327,-1.04048 1.5,-1.75c0.03402,-1.22857 -1.30147,-1.28326 -2.375,-1.5625c2.02199,-0.77055 1.54937,-2.16474 2.3125,-3.25z"/>
   <path fill="#000000" fill-rule="evenodd" stroke-width="1px" fill-opacity="0.15686" id="path3154" d="m71.375,67.625l0.75,-5.4375l-0.8125,0.875l-2,5.5625c0.67817,-0.40799 1.23661,-1.77378 2.0625,-1z"/>
   <path fill="#000000" fill-rule="evenodd" stroke-width="1px" fill-opacity="0.15686" id="path3156" d="m75.1875,103.0625l2.4375,-0.1875l1.5625,-0.4375c0.91801,-0.68851 3.92411,-4.8337 3.375,-3.9375c-0.3409,0.55639 -0.9375,2.875 -0.9375,2.875c-0.65209,1.09503 -1.33467,2.19241 0.125,3.125l-4.125,0.1875l-2.4375,-1.625z"/>
   <path fill="#000000" fill-rule="evenodd" stroke-width="1px" fill-opacity="0.15686" id="path3158" d="m66.25,94.125l-0.375,3.5625l0.0625,1.9375l1.375,1.6875l3.375,1.4375c-2.12674,-2.34884 -4.84352,-4.21828 -4.4375,-8.625z"/>
   <path fill="#000000" fill-rule="evenodd" stroke-width="1px" fill-opacity="0.15686" id="path3160" d="m120,73.5l-4.4375,1.8125l-3.625,0l1.875,0.875l2.875,0.3125c0.26663,-1.67003 2.20778,-2.00044 3.3125,-3z"/>
   <path fill="#000000" fill-rule="evenodd" stroke-width="1px" fill-opacity="0.15686" id="path3164" d="m122,63.875l0.875,3.75l-0.25,3.5625c-1.4453,-0.8065 -2.99613,-1.15568 -4.9375,0.1875c-0.3467,-2.81073 1.58942,-5.47878 3.875,-8.125l0.4375,0.625z"/>
   <path fill="#000000" fill-rule="evenodd" stroke-width="1px" fill-opacity="0.15686" id="path3166" d="m107.875,61.3125l1.125,-2.1875l2,-1.5c0,0 -1.3125,4.6875 -3.125,3.6875z"/>
   <path fill="#000000" fill-rule="evenodd" stroke-width="1px" fill-opacity="0.15686" id="path3170" d="m116.4375,37.4375l-1.625,3l-0.1875,3.4375c-0.72121,-0.76917 -0.30043,-2.79453 -2.5,-1.9375l1.875,-3.75l1.25,-1l0.9375,-0.3125l0.25,0.5625z"/>
   <path fill="#000000" fill-rule="evenodd" stroke-width="1px" fill-opacity="0.15686" id="path3172" d="m91.75,30c-1.56094,-0.00418 -1.94894,1.33216 -2.375,2.625c-1.09792,0.58439 -1.58644,0.25466 -2.375,0.375c0.35934,-1.53842 0.38038,-3.11912 2,-4.5l1.5625,-2l1.1875,3.5z"/>
   <path fill="#000000" fill-rule="evenodd" stroke-width="1px" fill-opacity="0.15686" id="path3174" d="m82.625,15.0625c-0.56493,-1.41112 -1.2834,-2.47127 -3,-1.25l2.8125,-4l1.3125,2.1875l1.75,0.8125c-1.44202,0.11483 -1.18365,2.7644 -2.875,2.25z"/>
   <path fill="#000000" fill-rule="evenodd" stroke-width="1px" fill-opacity="0.15686" id="path3176" d="m78.875,32.1875c0,0.25 1.75,5.875 1.75,5.875l2.3125,2.4375l4.5625,0.4375c-3.01877,-2.50589 -6.65948,-3.2348 -8.625,-8.75z"/>
   <path fill="#000000" fill-rule="evenodd" stroke-width="1px" fill-opacity="0.15686" id="path3178" d="m37.75,32.1875c-1.26516,2.8125 -1.00211,5.625 -1.1875,8.4375c0.43491,1.27604 -0.37763,3.05105 -0.6875,4.625c1.16835,-0.77215 1.94946,-2.83514 3.5625,-2.125l-1,-1.75l0.5,-6.4375l-1.1875,-2.75z"/>
   <path fill="#000000" fill-rule="evenodd" stroke-width="1px" fill-opacity="0.15686" id="path3180" d="m28.8125,45.6875l-1.125,-1.5l-0.4375,-1.8125c1.06325,0.56699 1.83698,-0.60309 2.75,-0.9375l-1.3125,2.25l0.125,2z"/>
   <path fill="#000000" fill-rule="evenodd" stroke-width="1px" fill-opacity="0.15686" id="path3182" d="m28.8125,36.125c0,0 -1.25,-0.75 -1.25,-1.625c0,-0.875 0.25,-3.375 0.25,-3.375l-1.5,2.875l-0.5625,4.1875c1.13241,-1.19167 2.09153,-2.32376 3.0625,-2.0625z"/>
   <path fill="#000000" fill-rule="evenodd" stroke-width="1px" fill-opacity="0.15686" id="path3184" d="m30.625,13.4375l0.6875,-2.125l-1.9375,1.375l-1.875,4.5625c1.03328,-1.32953 1.94395,-3.51737 3.125,-3.8125z"/>
  </g>
  <g id="layer1">
   <path fill="#000000" stroke-width="0.89514" stroke-miterlimit="4" id="path2310" d="m84.75,5.21875c-1.24515,0.12149 -2.24063,1.32665 -2.5625,3.1875l0,0.03125c-0.12641,0.81501 -0.51448,1.31406 -1.03125,1.875c-0.51677,0.56094 -1.16476,1.13155 -1.71875,1.96875l-0.03125,0.0625l-0.03125,0.09375c-0.33143,1.13152 -0.41945,3.35284 -0.46875,5.65625c-0.04875,2.27767 -0.03172,4.52119 -0.03125,5.53125c0.00001,0.01141 0,0.05141 0,0.0625c-0.44723,3.09714 -0.72215,6.24211 -0.3125,9.40625c-1.99414,-0.02746 -3.4994,0.88103 -4.8125,2.25c-0.29675,0.99727 0.30851,1.3958 0.875,2.0625c0.61037,1.10413 1.61266,1.46383 2.78125,1.84375c1.04008,-0.06399 2.08415,-0.01415 3.125,0c0.24645,0.25803 0.51934,0.51017 0.84375,0.75l0,0.03125c2.77519,1.90255 6.07398,1.48788 8.96875,0.375c0.28576,0.81373 0.77206,1.255 1.59375,1.65625c1.64684,0.17407 3.04907,-0.26369 4.375,-1.1875c1.79355,-1.84657 1.28861,-3.5797 -0.34375,-5.1875l-0.03125,-0.03125l-0.03125,0c-0.57857,-0.38209 -1.2096,-0.71887 -1.875,-0.90625c-0.0107,-0.60699 -0.08244,-1.39594 -0.21875,-1.96875c-1.03307,-2.13264 -1.92481,-4.35608 -2.8125,-6.5625c-0.17667,-5.02258 -0.54971,-13.53981 -3.25,-18.21875c-0.01143,-0.03695 -0.01941,-0.0575 -0.03125,-0.09375l-0.03125,0c-0.28721,-0.87187 -0.66134,-1.57538 -1.15625,-2.03125c-0.51871,-0.47779 -1.15868,-0.717 -1.78125,-0.65625zm0.09375,1c0.31695,-0.03093 0.64934,0.08325 1,0.40625c0.35066,0.323 0.71885,0.8484 0.96875,1.65625l0,0.0625l0.03125,0.0625c2.49632,4.24382 2.98059,12.94925 3.15625,17.96875l-1.03125,2.0625l-0.40625,2.9375l-1.5625,1.46875l0.0625,0.125l1.90625,-0.78125l0.375,0.65625l0.1875,-0.0625l-0.15625,-0.78125l0.09375,-3.3125l0.84375,-1.4375c0.78057,1.9235 1.57796,3.87126 2.53125,5.75c0.15616,0.65622 0.14091,1.0824 0.09375,1.625c-0.92728,0.05083 -1.84153,0.57035 -2.5,1.6875c-0.22045,1.01288 -0.24076,2.05766 -0.25,3.09375c-2.76174,1.10514 -5.73943,1.48096 -8.21875,-0.21875c-0.92103,-0.68092 -1.38094,-1.34 -1.6875,-2.15625c-0.30656,-0.81625 -0.44868,-1.79303 -0.59375,-2.96875l0,-0.03125c-0.6267,-3.39724 -0.31321,-6.7976 0.1875,-10.25l0,-0.03125l0,-0.0625c0,-1.00653 -0.01761,-3.27965 0.03125,-5.5625c0.0483,-2.25663 0.20907,-4.52267 0.4375,-5.34375c0.45639,-0.66352 1.01257,-1.18431 1.5625,-1.78125c0.17551,-0.19051 0.33944,-0.40326 0.5,-0.625l1.03125,1.5625l-0.0625,1.875l-0.84375,1.375l0,0.03125l1.125,-1.09375l0.25,-1.5625l1.71875,0.375l0.03125,-0.0625l-1.65625,-0.875l0.03125,-0.125l-1.125,-2.375c0.12184,-0.28634 0.22789,-0.59346 0.28125,-0.9375c0.27634,-1.59764 1.02235,-2.2819 1.65625,-2.34375zm-52.09375,4.3125c-4.5514,-0.04868 -5.46166,5.33445 -5.9375,9.125c-0.55144,3.58676 1.38198,7.32051 0.84375,10.90625c-1.42983,2.58052 -2.38314,5.48561 -2.34375,8.34375l0,0.09375c0.8703,2.85264 2.03472,5.4733 3.84375,7.84375c3.62414,1.17034 6.82022,-0.32121 10,-2.03125l0.03125,0l0,-0.03125c0.57801,-0.55673 0.94974,-1.17537 1.21875,-1.84375c0.78625,0.07187 1.73421,0.26925 2.71875,-0.1875l0,0.03125c1.05598,-0.29428 2.20283,-0.40684 2.78125,-1.65625c-0.51331,-1.08637 -1.22696,-2.03303 -1.96875,-2.96875c-1.023,-0.56896 -1.94137,-0.39197 -2.96875,-0.09375c-0.00262,-0.16714 0.00198,-0.33382 0,-0.5c-0.00002,-0.00856 0.00001,-0.02274 0,-0.03125c0.00158,-0.01147 -0.00155,-0.0198 0,-0.03125c0.39713,-2.94023 -0.78997,-4.63711 -1.96875,-7.125c-1.38599,-3.21706 -0.5,-7.58173 -0.5,-11.28125c-0.99176,-3.49644 -2.07251,-7.34089 -5.75,-8.5625zm-0.125,0.5625c3.28877,0.83927 3.92243,5.28205 4.875,8.09375c-0.00646,2.32071 -0.24713,4.79362 0,7.21875l0.15625,5.875l0.9375,2.53125l-2.125,5.84375l0.09375,0l1.8125,-4l-0.21875,1.125l-0.3125,3.5l-2.09375,3.96875l0.1875,0l2.5,-3.65625l0.1875,-3.6875l0.53125,-3l0,-0.03125l0,-0.03125l-1.09375,-2.65625l0.125,-2.6875c0.08635,0.24911 0.14433,0.50473 0.25,0.75c1.23451,2.28217 1.72438,4.58732 1.5625,7.15625c0.27614,2.36663 -0.01637,4.73097 -1.125,6.8125c-2.82098,1.94605 -5.868,2.99125 -9.3125,2.5625c-0.90489,-1.4471 -0.52327,-2.1223 -0.6875,-3.125l1.25,-2.125l-0.21875,-0.25l-1.4375,2.34375l-0.03125,1.625c-1.26703,-2.05312 -1.25526,-4.14243 -2.125,-6.4375c-0.02399,-2.36707 0.26816,-4.91364 1.1875,-7.0625l-0.125,2.78125l1.34375,1.71875l0.125,-0.125l-1.15625,-1.53125l0.34375,-3.90625c0.00756,-0.06285 0.02433,-0.1246 0.03125,-0.1875l0,-0.15625l1.53125,-1.59375l0.03125,-0.3125l-1.5,1.3125c0.23737,-3.27775 -0.28322,-6.60909 -0.3125,-9.90625l0,-0.0625l0,-0.03125c0.44244,-2.42457 1.00089,-6.36645 3.09375,-7.96875l-0.34375,1.625l0.25,0.15625l0.75,-2.15625c0.32644,-0.15366 0.67083,-0.26919 1.0625,-0.3125zm45.65625,23c0.14464,0.0005 0.29055,0.02304 0.4375,0.03125c0.00372,0.02065 -0.00378,0.04185 0,0.0625l-0.03125,0c0.14514,1.17628 0.29164,2.21671 0.65625,3.1875c0.12521,0.33337 0.27719,0.65795 0.46875,0.96875c-0.77923,0.16101 -1.59868,0.50423 -2.34375,0.53125c-1.17687,-0.19442 -1.33292,-1.09471 -2.0625,-2.0625c-0.3748,-0.1807 -0.98996,-0.84893 -1.25,-1.15625c1.0936,-1.10075 2.53589,-1.568 4.125,-1.5625zm14.90625,1.0625c0.64796,0.01083 1.35485,0.80287 2.09375,1.28125c1.54852,1.18387 1.74828,2.69413 0.625,4.1875c-0.97921,0.81415 -2.55943,0.38734 -3.78125,0.46875c-0.62316,-0.17502 -1.10503,-0.52378 -1.375,-1.03125c-0.01107,-0.85865 0.51061,-2.46523 0.625,-3.3125c0.55359,-0.892 1.16763,-1.60453 1.8125,-1.59375zm22.65625,1.5625c-1.96841,0.28281 -2.79058,1.7091 -3.53125,3.40625c-1.36304,2.82979 -2.87893,5.58114 -4.0625,8.5c-0.10551,3.18392 0.38956,6.36051 0.6875,9.53125c-0.21774,1.23072 -1.2207,2.45803 -1.9375,3.5625c-3.95212,-12.8839 -20.92553,-22.5625 -41.1875,-22.5625c-15.05074,0 -28.21301,5.34384 -35.625,13.375c-0.4664,-1.36929 -1.12039,-2.6423 -2,-3.71875l0,-0.09375l-0.125,-0.0625c-0.82049,-0.95782 -1.83267,-1.75181 -3.125,-2.25l-0.0625,-0.03125l-0.0625,0c-4.95704,-0.34024 -5.76298,5.36626 -6.09375,9.21875c-0.73637,4.67912 -3.16778,8.82267 -4.875,13.1875c-0.41481,4.91499 -0.38183,9.83544 -0.03125,14.75l0.03125,0.0625l0.03125,0.0625c0.31987,0.85622 0.70474,1.53426 1.15625,2.09375l-2.90625,-0.90625c-1.72311,0.48703 -2.30914,1.65501 -2.875,3.21875c-0.01655,1.36914 0.92359,1.99924 1.9375,2.71875c2.61732,0.3271 4.85764,-0.65954 7.03125,-2c-0.13824,-0.50303 -0.43657,-0.95229 -0.75,-1.375c0.69391,0.23223 1.45399,0.37733 2.34375,0.4375c3.33857,-0.20381 6.38022,-1.31483 9.28125,-2.90625l0.0625,-0.03125l0.03125,-0.0625c0.56584,-0.64313 0.96898,-1.36239 1.25,-2.125c7.42879,7.8468 20.39501,13.08092 35.1875,13.125c-0.06976,0.57599 -0.12371,1.17901 -0.15625,1.8125c-1.16598,0.12088 -2.00148,1.11916 -2.84375,1.71875c-1.39594,0.80128 -1.9348,1.25901 -2.25,2.71875c0.37976,1.99151 1.82769,2.99384 3.71875,3.09375c1.81123,0.02066 3.81127,-1.16084 5,-2.1875c2.15051,0.63391 4.48238,0.50981 6.625,1.34375c2.01914,0.99547 4.1908,0.80561 6.34375,0.34375c1.89635,-0.67187 3.45947,-2.14039 4.125,-4.40625c1.36014,-0.16277 2.62929,-0.50652 3.625,-1.40625c0.16059,-1.04422 0.00836,-2.18372 -0.0625,-3.25c-0.15493,-0.54482 -0.75446,-0.5732 -1.21875,-0.75c-1.27771,-0.00245 -2.45087,-0.07616 -3.6875,-0.34375c-0.20839,-0.52336 -0.42714,-1.04884 -0.65625,-1.5625c11.94987,-3.93364 20.74724,-11.56606 23.0625,-20.6875c0.61407,1.24168 1.5845,2.28552 3.0625,3c3.11707,1.18229 6.0763,1.76803 9.34375,1.03125c0.22669,-0.13323 0.4534,-0.25382 0.65625,-0.40625c0.74145,0.79371 1.36859,1.16613 2.4375,1c1.50876,-0.41525 3.31373,0.15688 4.375,-1.75c-0.85243,-1.00087 -1.76793,-1.9702 -1,-3.78125c-0.98162,-0.63416 -1.96846,-0.61414 -2.96875,-0.5c0.39516,-2.16451 0.18098,-4.53023 -0.34375,-6.53125c-0.68737,-2.27951 -2.13607,-4.23372 -2.71875,-6.5625c-0.45793,-3.6321 0.79642,-7.63755 0.96875,-11.4375c0.36551,-2.54672 0.39533,-4.58518 -0.59375,-6.96875l-0.03125,-0.0625l-0.03125,-0.03125c-1.48813,-1.65763 -3.04739,-2.63237 -4.5625,-2.5625zm0.15625,0.21875c0.09908,-0.00457 0.20959,0.03942 0.3125,0.0625l-1.9375,3.71875l0.21875,3.28125l0.1875,0.09375l0.1875,-3.25l1.9375,-3.625c0.81993,0.50025 1.72648,1.59137 2.71875,2.6875c1.16104,2.05709 0.55919,4.17988 0.4375,6.40625c-0.36401,3.81322 -0.78716,7.57584 -0.53125,11.40625c0.5012,1.94805 1.23667,3.8222 1.90625,5.71875l-1.1875,3.625l-2.5625,4.28125l-1.59375,0.375l0.03125,0.03125l1.46875,-0.125l3.1875,-4.375l0,-0.03125l0.03125,-0.0625l0.9375,-2.8125c0.03146,0.09352 0.06287,0.18755 0.09375,0.28125c1.10506,3.94695 1.01999,8.83219 -2.375,11.3125c-2.20894,0.83363 -4.69564,0.12325 -7,-0.59375l3.09375,0.0625l5.09375,-1.84375l1.03125,-2.53125l-0.03125,0l-1.15625,2.0625l-5.15625,1.90625l-4.78125,-0.25c-4.05202,-1.78893 -3.44816,-8.4982 -2.9375,-12.21875c0.61723,-0.92548 1.06717,-1.89384 1.40625,-2.90625c1.08906,-0.90852 2.05738,-1.73874 2.8125,-3.5625l-0.15625,0.03125c-0.02153,1.03342 -1.35409,1.54758 -2.28125,2.21875c-0.19561,-3.13457 -0.60531,-6.45583 -0.53125,-9.59375c1.06343,-2.91999 3.07234,-5.28731 4.375,-8.1875l0,-0.03125l0,-0.03125c0.45779,-1.54179 1.35756,-3.02674 2.75,-3.53125zm-72.9375,1.40625c0.26345,-0.02422 0.49837,-0.0146 0.6875,0.03125c0.54208,0.63114 0.98355,2.13896 1.375,2.84375c-0.43043,0.38577 -1.66525,0.90092 -2.4375,1.1875c-0.65805,0.30021 -1.31009,-0.22253 -2,-0.40625c0.22936,-0.96655 0.28484,-1.99673 0.28125,-3.03125c0.56556,-0.28747 1.4047,-0.56164 2.09375,-0.625zm22.5,1.21875c19.99839,0 37.32985,10.33286 40.96875,23.28125l0.0625,0c-0.32284,2.9136 -0.60742,6.10721 0.3125,8.65625c-1.88285,9.25215 -10.84862,16.99367 -22.96875,20.9375c-0.00397,-0.00871 0.00397,-0.02255 0,-0.03125c-0.51489,-4.92583 -0.20649,-9.87399 -0.53125,-14.8125c-0.04749,-1.56989 -0.25436,-3.10922 -0.5625,-4.625l22.0625,-2.8125l-25.09375,-7.59375c-0.05307,-0.22367 -0.67467,-2.18803 -0.75,-2.40625l4.1875,-16.375l-20.25,13.28125l-25.59375,-7.9375l13.0625,16.03125l-19.46875,12.84375c-0.01356,-0.59418 -0.02675,-1.18279 -0.0625,-1.78125c-0.18821,-3.15041 -0.48613,-6.32844 0.125,-9.09375c0.46491,-4.49129 0.08909,-9.00769 -0.53125,-13.46875l0,-0.03125c-0.05138,-0.18846 -0.09931,-0.37605 -0.15625,-0.5625c7.31395,-8.03229 20.43291,-13.5 35.1875,-13.5zm17.40625,4.59375l-4.25,15.65625c-0.23262,-0.29643 -0.49184,-0.57542 -0.84375,-0.8125c-1.59782,0.01728 -3.27278,0.68317 -4.34375,1.3125l-10.3125,-3.25l19.75,-12.90625zm-58.25,2.46875c0.89754,0.35655 1.62539,0.98473 2.25,1.71875l1.28125,5.40625l-0.4375,4.125l-1.28125,5.59375l0.28125,0.09375l1.4375,-4.75l1.21875,3.65625l-1.40625,3.5625l2,-3.3125l-1.46875,-5.625l0.28125,-3.28125l-0.4375,-3.15625c0.47263,1.02496 0.8325,2.12108 1.125,3.1875c0.96418,4.35609 1.14136,8.80676 1.0625,13.25c-0.5908,3.13383 -0.72817,6.13158 -0.5,9.28125c0.18278,3.05945 0.02965,5.78741 -1.65625,7.75c-1.08731,0.67191 -2.21378,1.32864 -3.375,1.875l-1.5625,-1.15625l-0.53125,-1.25l-0.4375,-2.9375l-0.0625,-0.125l-0.25,3.125l0.09375,0.21875l-2.5,0.21875l0,0.1875l2.75,0.125l0.4375,0.875l1.28125,1.03125c-1.47408,0.62892 -2.98251,1.10069 -4.53125,1.25c-2.65644,0.11803 -3.82474,-2.14484 -4.96875,-4.28125c-0.63231,-4.33816 -0.64809,-10.04927 -0.53125,-14.53125c0.5781,-1.70673 1.40266,-3.28699 2.25,-4.84375c-0.43019,1.18557 -0.80109,2.31255 -0.40625,4.09375l0.28125,-0.03125c-0.3396,-2.26743 0.55595,-4.12202 1.15625,-6c1.00172,-1.93425 1.88506,-3.9211 2.15625,-6.25l0,-0.03125l0,-0.03125c0.18303,-3.29076 0.93789,-8.97773 5,-9.03125zm13.125,2.78125l24.90625,7.78125l-11.84375,8.125l-13.0625,-15.90625zm25.25,7.8125l10.0625,3.3125c-1.52714,1.20217 -2.56348,3.03303 -3.4375,5.21875c-1.18272,2.69556 -1.08421,5.65707 -0.9375,8.5l-10.03125,0.9375l-7.6875,-9.90625l12.03125,-8.0625zm14,2.53125c1.04969,0.81306 1.40855,1.93594 1.75,3.15625c0.19729,1.27432 0.91302,2.9048 1.75,4.125c1.45775,3.43124 1.86208,6.97247 2.0625,10.71875c0.33762,4.96333 0.35374,10.1673 0.8125,15.125c1.84062,1.92989 1.70349,5.14901 1.75,7.125c-0.58269,1.97259 -1.84373,3.70551 -3.46875,4.28125c-1.64566,0.58305 -3.67474,-0.02525 -5.5625,-0.78125c-0.11584,-0.07018 -0.22588,-0.12731 -0.34375,-0.1875l2.4375,0l3.65625,-1.78125l0.0625,-0.21875l1.90625,-1.125l-0.09375,-0.15625l-1.6875,0.71875l0.6875,-2.6875l-0.21875,-0.125l-0.96875,3.3125l-3.5,1.5l-0.09375,0l0.25,-2.15625l-0.0625,-0.09375l-0.875,2.25l-3.4375,-0.0625c-1.93926,-0.35492 -3.98624,-0.15954 -5.8125,-1.125c-0.67159,-0.47991 -1.59385,-1.25083 -2,-2.59375c-0.04396,-4.61612 1.50513,-7.47649 2.5625,-10.34375l0.03125,-0.09375l0,-0.0625c0.05456,-4.66611 0.67056,-7.13873 0.75,-11.90625c-0.07748,-0.83588 -0.12051,-1.65125 -0.125,-2.46875l0.09375,-0.09375l-0.09375,0c-0.00512,-2.67047 0.39735,-5.26628 1.3125,-7.84375c0.16763,-1.13779 0.50443,-2.06883 0.96875,-2.84375c-0.2627,1.28025 -0.40536,2.6767 -0.28125,4.34375l0.21875,-0.0625c-0.17302,-2.18024 0.97424,-4.05148 1.625,-6.03125c1.05545,-0.8042 2.3929,-1.35099 3.9375,-1.8125zm2.75,3.125l24.125,7.25l-21.09375,2.46875c-0.51837,-1.60756 -1.26753,-4.21421 -1.96875,-6.125c-0.72118,-1.08386 -0.86374,-2.34185 -1.0625,-3.59375zm-29.0625,2.375l7.84375,10.25l-27.59375,2.53125l19.75,-12.78125zm73.125,6.3125c0.58435,-0.02101 1.04077,0.25045 1.375,0.71875c0.10586,0.75559 -0.49442,1.26516 0.625,2.34375c0.16035,1.53024 -2.1268,1.51668 -3.40625,1.96875c-0.75192,0.18398 -1.08652,-0.66557 -1.625,-1.1875c1.03643,-0.9771 1.71324,-2.21993 2.09375,-3.59375c0.00267,-0.00964 -0.00264,-0.02161 0,-0.03125c0.32902,-0.15143 0.66141,-0.20882 0.9375,-0.21875zm-55.125,2.90625c0.03486,0.66286 0.07365,1.33154 0.09375,2c-0.06245,3.74832 -0.76202,6.39318 -1.0625,9.625l-8.78125,-10.75l9.75,-0.875zm-9.9375,1.28125l8.9375,10.625c-0.04765,0.62182 -0.08415,1.26472 -0.09375,1.96875c-0.7412,2.00589 -1.58827,4.13869 -2,6.90625c-14.57468,-0.03015 -27.65861,-5.3306 -35.0625,-13.1875c0.32274,-1.17335 0.42136,-2.44851 0.40625,-3.75l27.8125,-2.5625zm-46.84375,9.65625c0.98195,0.1172 2.60472,0.89053 3.46875,1.34375c0.93569,0.39074 1.27017,1.6098 1.8125,2.4375c-1.24047,0.63628 -3.11443,0.40958 -4.53125,0.9375c-0.88686,0.33046 0.40321,-1.67952 0.5,-1.84375c0.14962,-0.25386 -1.58959,1.83652 -1.875,1.84375c-0.70545,-0.29885 -1.28249,-1.30934 -1.625,-1.875c0.57493,-1.18179 1.0904,-2.30936 2.25,-2.84375zm73.125,9.8125c1.0746,0.33328 2.4223,-0.04573 3.625,0.09375c0.45488,0.54102 0.34852,2.64085 0.375,3.40625c-0.71375,0.7259 -1.95016,0.5789 -2.96875,0.71875c-0.15276,-1.44447 -0.52805,-2.85439 -1.03125,-4.21875zm-19.6875,3.46875c-0.00046,0.10641 -0.00118,0.20416 0,0.3125c0.24671,1.41007 1.16775,2.36038 2.09375,3.375c0.2852,0.15795 0.58038,0.25974 0.875,0.375c-1.3626,0.80894 -2.70021,1.66217 -4.28125,1.75c-1.51487,0.00483 -2.39706,-0.98295 -3,-2.21875c-0.04256,-0.7421 0.64444,-1.81941 1.875,-2.53125c0.73254,-0.65108 1.53783,-0.89286 2.4375,-1.0625z"/>
  </g>
 </g>
</svg>