<?xml version="1.0" encoding="UTF-8" standalone="no"?>
<svg viewBox="-320 -240 640 480" xmlns="http://www.w3.org/2000/svg" xmlns:xlink="http://www.w3.org/1999/xlink">
 <defs>
  <linearGradient id="linearGradient2320">
   <stop stop-color="#6a3c1d" offset="0" id="stop2322"/>
   <stop stop-color="#8f5127" offset="1" id="stop2324"/>
  </linearGradient>
  <linearGradient id="linearGradient2338">
   <stop stop-color="#b1b1b1" offset="0" id="stop2340"/>
   <stop stop-color="#e4e4e4" offset="1" id="stop2342"/>
  </linearGradient>
  <linearGradient y2="0.08888" x2="0.85567" y1="0.08888" x1="0.12968" id="linearGradient2369" xlink:href="#linearGradient2338"/>
  <linearGradient y2="0.57015" x2="1.11047" y1="0.57015" x1="0.58958" id="linearGradient2374" xlink:href="#linearGradient2338"/>
  <linearGradient y2="0.64982" x2="1.02862" y1="0.64982" x1="0.35891" id="linearGradient2410" xlink:href="#linearGradient2338"/>
  <linearGradient y2="0.16674" x2="0.9703" y1="0.16674" x1="0.13785" id="linearGradient2412" xlink:href="#linearGradient2338"/>
  <linearGradient y2="0.74995" x2="0.68451" y1="0.74995" x1="0.32885" id="linearGradient2414" xlink:href="#linearGradient2338"/>
  <linearGradient y2="0.42693" x2="0.88257" y1="0.42693" x1="0.19591" id="linearGradient2416" xlink:href="#linearGradient2338"/>
  <linearGradient y2="0.49997" x2="0.99998" y1="0.49997" x1="-0.00003" id="linearGradient2418" xlink:href="#linearGradient2338"/>
  <linearGradient y2="0.29808" x2="0.99967" y1="0.29808" x1="-0.0007" id="linearGradient2420" xlink:href="#linearGradient2338"/>
  <linearGradient y2="1.00011" x2="0.84841" y1="1.00011" x1="0.11516" id="linearGradient2422" xlink:href="#linearGradient2338"/>
  <linearGradient y2="0.50004" x2="0.69993" y1="0.50004" x1="0.06604" id="linearGradient2424" xlink:href="#linearGradient2338"/>
  <linearGradient y2="0.17239" x2="0.87694" y1="0.17239" x1="0.18455" id="linearGradient2426" xlink:href="#linearGradient2338"/>
  <linearGradient y2="0.70561" x2="0.82411" y1="0.70561" x1="0.38897" id="linearGradient2428" xlink:href="#linearGradient2338"/>
  <linearGradient y2="0.49995" x2="1.00003" y1="0.49995" x1="-0.00014" id="linearGradient2430" xlink:href="#linearGradient2338"/>
  <linearGradient y2="0.88769" x2="0.79292" y1="0.88769" x1="0.1857" id="linearGradient2432" xlink:href="#linearGradient2338"/>
  <linearGradient y2="0.21771" x2="0.65641" y1="0.21771" x1="0.00019" id="linearGradient2434" xlink:href="#linearGradient2338"/>
  <linearGradient y2="1.00009" x2="0.49997" y1="1.00009" x1="0.09712" id="linearGradient2436" xlink:href="#linearGradient2338"/>
  <linearGradient y2="0.78419" x2="0.81072" y1="0.78419" x1="0.091" id="linearGradient2438" xlink:href="#linearGradient2338"/>
  <linearGradient y2="0.24627" x2="0.73089" y1="0.24627" x1="0.23083" id="linearGradient2440" xlink:href="#linearGradient2338"/>
  <linearGradient y2="0.58107" x2="0.89268" y1="0.58107" x1="0.08937" id="linearGradient2442" xlink:href="#linearGradient2338"/>
  <linearGradient y2="0.59824" x2="0.04046" y1="0.59824" x1="0.44219" id="linearGradient3218" xlink:href="#linearGradient2320"/>
  <linearGradient y2="0.8962" x2="0.73305" y1="0.8962" x1="0.2667" id="linearGradient3248" xlink:href="#linearGradient2338"/>
  <linearGradient y2="0.84285" x2="0.89373" y1="0.84285" x1="0.1971" id="linearGradient3250" xlink:href="#linearGradient2338"/>
  <linearGradient y2="0.76151" x2="0.8443" y1="0.76151" x1="0.2225" id="linearGradient3252" xlink:href="#linearGradient2338"/>
  <linearGradient y2="0.78117" x2="0.84442" y1="0.78117" x1="0.27747" id="linearGradient3254" xlink:href="#linearGradient2338"/>
  <linearGradient y2="1.00035" x2="0.79988" y1="1.00035" x1="0.49978" id="linearGradient3256" xlink:href="#linearGradient2338"/>
  <linearGradient y2="0.89766" x2="0.78104" y1="0.89766" x1="0.50017" id="linearGradient3258" xlink:href="#linearGradient2338"/>
  <linearGradient y2="0.83319" x2="0.80615" y1="0.83319" x1="0.30612" id="linearGradient3260" xlink:href="#linearGradient2338"/>
  <linearGradient y2="0.91444" x2="0.84148" y1="0.91444" x1="0.15836" id="linearGradient3262" xlink:href="#linearGradient2338"/>
  <linearGradient y2="0.90998" x2="0.81696" y1="0.90998" x1="0.36626" id="linearGradient3264" xlink:href="#linearGradient2338"/>
  <linearGradient y2="1.00015" x2="0.84302" y1="1.00015" x1="0.15695" id="linearGradient3266" xlink:href="#linearGradient2338"/>
  <linearGradient y2="0.50009" x2="1.00006" y1="0.50009" x1="0.00009" id="linearGradient3268" xlink:href="#linearGradient2338"/>
  <linearGradient y2="0.64291" x2="0.82545" y1="0.64291" x1="0.12774" id="linearGradient3270" xlink:href="#linearGradient2338"/>
  <linearGradient y2="0.71524" x2="0.9998" y1="0.71524" x1="0.13978" id="linearGradient3272" xlink:href="#linearGradient2338"/>
  <filter id="filter3649">
   <feGaussianBlur id="feGaussianBlur3651" stdDeviation="1.25327"/>
  </filter>
 </defs>
 <metadata id="metadata7">image/svg+xml</metadata>
 <g transform=" scale(4) translate(-70,-80)">
  <title>Layer 1</title>
  <g id="layer2">
   <path fill="#000000" fill-rule="evenodd" stroke-width="1px" filter="url(#filter3649)" fill-opacity="0.56164" id="path3528" d="m43.69087,54.48887c-5.3101,-1.26193 -12.49561,1.72587 -5.63244,4.22623c5.7592,2.16996 -2.02088,4.0553 -5.17921,1.82265c-2.21026,-2.19937 -5.2711,-5.39742 -10.38563,-4.17865c-3.34791,0.6614 -6.76084,2.82993 -5.65073,4.2804c4.84551,0.59104 0.59418,6.04472 2.02338,9.25601c1.47683,2.73523 1.20731,6.08371 6.3313,8.17603c5.44763,1.76743 5.20369,4.82243 5.93665,7.38826c2.20973,7.70295 3.50892,15.96438 5.75028,23.657c1.82989,2.6676 9.35755,6.08773 13.65742,7.41801c5.79823,1.42603 11.84082,-0.00464 17.6656,0.01859c5.30252,-0.66872 9.55836,-3.79221 14.94274,-4.38165c11.8223,-1.51698 12.63237,-4.09193 6.38001,-14.46012c-4.79295,-7.59367 -6.57978,-10.68432 -11.6498,-18.26109c3.73525,-1.8129 3.40392,-5.29818 0.62628,-8.1624c-6.06086,-6.0412 -3.68378,-6.54963 -4.90101,-9.09981c-2.15078,-2.44009 -7.3152,-5.49539 -12.2353,-4.7316c-3.28197,0.49892 2.87019,2.49336 -1.42279,1.06954c-1.85464,0.119 1.74825,2.87993 -1.94736,1.20581c-4.34087,-2.18868 -9.90898,-2.61974 -14.86593,-2.72679c3.00027,0.73236 11.30291,0.97558 6.8374,-1.64559c-1.98362,-0.70638 -4.24001,-0.87308 -6.28086,-0.87082zm-7.01237,3.90241c-5.99943,-1.67567 -4.00512,4.68943 0.64523,2.62447c4.15075,0.31706 2.39219,-2.04057 -0.64523,-2.62447zm-11.16549,1.22057l-0.21131,0.09018l0.21131,-0.09018zm-3.41629,1.90823c0.24594,0.03234 -0.21157,0.08028 0,0zm-2.48233,4.93388c0.76304,0.17358 -0.05464,0.51515 0,0z"/>
   <path fill="url(#linearGradient2369)" fill-rule="evenodd" stroke-width="1px" id="path2367" d="m41.83014,52.90144l-3.91393,53.81656l0.85617,1.71234l5.8709,5.13704l10.02945,4.7701l11.49718,2.07928l0.36692,-7.58324l0.73387,-11.00794l3.18007,-5.38166l3.18007,-2.32388l4.6478,1.2231l4.03624,2.93545l1.46773,2.20159l1.71234,8.68403l1.71235,6.23783l9.17327,-7.33862l-2.32389,-25.19593l-3.42469,-30.57759l-4.7701,2.69082l-7.21632,2.69083l-8.92866,0.97848l-8.3171,-0.24462l-10.51869,-1.71234l-9.05097,-3.79162z"/>
   <path fill="url(#linearGradient2374)" fill-rule="evenodd" stroke-width="1px" id="path2372" d="m35.83694,30.76326l0.12231,16.02266l3.66931,4.64779l5.62627,3.42469l10.27407,3.05776l10.5187,1.1008l12.10872,-1.1008l10.51869,-4.15855l6.60476,-6.48245l-0.24462,-15.90035l-1.10079,2.93545l-3.6693,3.79162l-3.05776,2.3239l-0.73386,-6.97169l-11.37487,3.18007l-6.97169,0.48924l-0.61155,7.46093l-6.84938,-0.24462l-6.11552,-0.85617l-3.79162,-1.34541l-0.12231,-6.23783l-5.25935,-1.46773l-4.28086,-2.07927l-2.93545,-3.547l-0.85617,3.91393l-1.46772,-1.95697z"/>
   <path fill="url(#linearGradient2442)" fill-rule="evenodd" stroke-width="1px" id="path2376" d="m37.30466,23.91388l5.74859,1.71235l0,1.83465l-4.77011,1.1008l-0.97848,4.40317l-1.10079,-2.81314l0.48924,-4.40317l0.61155,-1.83466z"/>
   <path fill="url(#linearGradient2440)" fill-rule="evenodd" stroke-width="1px" id="path2378" d="m37.54928,23.54695l-0.61155,-6.48245l5.99321,2.3239l0.36693,6.36014l-5.74859,-2.20159z"/>
   <path fill="url(#linearGradient2438)" fill-rule="evenodd" stroke-width="1px" id="path2380" d="m37.06004,16.69757l2.56852,-2.44621l3.42469,-2.20158l3.18007,-1.71235l2.93545,-1.34541l4.03624,4.7701l-4.40318,1.46773l-3.42469,2.20158l-2.32389,2.3239l-5.99321,-3.05776z"/>
   <path fill="url(#linearGradient2436)" fill-rule="evenodd" stroke-width="1px" id="path2382" d="m53.69425,15.10754l2.44621,-0.48925l2.69082,-0.73386l3.66932,3.79162l-2.69083,0.48924l-1.59004,0.73387l-2.07927,0.36693l-2.07928,0l-0.36693,-4.15855z"/>
   <path fill="url(#linearGradient2434)" fill-rule="evenodd" stroke-width="1px" id="path2384" d="m58.95359,14.00674l-0.36693,-6.84938l3.547,4.77011l0.36694,5.62627l-3.54701,-3.547z"/>
   <path fill="url(#linearGradient2432)" fill-rule="evenodd" stroke-width="1px" id="path2386" d="m59.56515,7.27967l4.03624,-0.24462l4.15855,-0.12231l5.50397,0.73386l2.69082,5.25935l-6.48244,-1.34541l-3.79163,0l-3.66931,0.36693l-3.18007,-4.40318l0.73387,-0.24462z"/>
   <path fill="url(#linearGradient2430)" fill-rule="evenodd" stroke-width="1px" id="path2388" d="m75.71011,13.27288l0.12231,4.15855l1.46772,0.24462l4.40318,2.3239l-0.12231,-2.81314l-1.83466,-1.10079l-2.07927,-1.2231l-1.71236,0.1223l-0.24461,-1.71234z"/>
   <path fill="url(#linearGradient2428)" fill-rule="evenodd" stroke-width="1px" id="path2390" d="m81.4587,13.39519l4.6478,-1.83465l4.03624,2.69082l2.20158,2.3239l1.59003,3.30238l0.73386,3.91393l-7.58324,0.85617l0.36694,-2.20158l-0.48924,-3.18007l-2.20159,-2.93545l-3.30238,-2.93545z"/>
   <path fill="url(#linearGradient2426)" fill-rule="evenodd" stroke-width="1px" id="path2392" d="m87.08498,24.64774l-0.36693,5.25935l7.95017,1.10079l-0.12231,-7.094l-7.46094,0.73386z"/>
   <path fill="url(#linearGradient2424)" fill-rule="evenodd" stroke-width="1px" id="path2394" d="m86.96267,29.90709l-1.34541,2.20159l0.97847,1.46772l0.48924,6.84938l1.83466,-1.46772l3.91393,-2.81314l1.83466,-2.93545l0.2107,-2.3239l-7.91625,-0.97848z"/>
   <path fill="url(#linearGradient2422)" fill-rule="evenodd" stroke-width="1px" id="path2396" d="m83.41566,27.09395c0.48925,1.10079 3.18008,6.23783 3.18008,6.23783l-4.52548,1.46772l-9.29558,2.07928l-4.89243,0.12231l-1.46772,-5.38166l4.03624,0l5.01472,-1.34541l3.547,-0.97848l3.79163,-1.59004l0.61153,-0.61155z"/>
   <path fill="url(#linearGradient2420)" fill-rule="evenodd" stroke-width="1px" id="path2398" d="m68.24918,36.63416l-0.85617,7.82786l-1.59003,-5.01472l0.61155,-7.70556l1.83466,4.89242z"/>
   <path fill="url(#linearGradient2418)" fill-rule="evenodd" stroke-width="1px" id="path2400" d="m65.68066,39.93654l-3.66931,-0.24462l-4.15855,-0.85617l-0.61155,-0.24462l-6.23783,3.547l0.85617,0.85617l3.30238,0.61155l6.84938,0.85617l5.50397,0.12231l-1.83466,-4.64779z"/>
   <path fill="url(#linearGradient2416)" fill-rule="evenodd" stroke-width="1px" id="path2402" d="m56.6297,32.3533l0.48924,6.48245l-6.11552,3.547l-0.12231,-4.03625l0,-2.4462l5.74859,-3.547z"/>
   <path fill="url(#linearGradient2414)" fill-rule="evenodd" stroke-width="1px" id="path2404" d="m56.38508,32.72023l-4.77011,-1.46773l-3.91393,-1.71234l-3.66931,-2.81314l-5.8709,1.71235l0.97849,1.95696l2.4462,2.07928l4.52549,2.20158l4.89241,1.34542l5.38166,-3.30238z"/>
   <path fill="url(#linearGradient2412)" fill-rule="evenodd" stroke-width="1px" id="path2406" d="m47.08949,28.43937l3.30238,-2.93545l5.99321,-2.81314l5.62627,-1.71235l4.52548,-0.61155l5.50397,0.48924l4.40318,0.73386l6.23783,3.05776l4.28086,4.52549l-0.85617,2.56851l1.10079,-3.79162l0,-3.79162l0.48924,-2.4462l-1.95697,-4.40318l-4.28086,-3.91393l0.12231,3.42469l0.24462,2.93545l-4.03624,-2.07928l-1.95696,-0.24462l0.1223,-4.52548l-5.99321,-1.10079l-3.42469,-0.24462l-4.52548,0.24462l0.61156,6.23782l-3.66932,0.85618l-4.15855,0.61155l-0.85617,-0.12231l-0.48924,-5.62628l-4.52549,1.34542l-4.15855,2.81313l-2.32389,2.44621l0.85617,6.11552l1.2231,0.61155l2.56852,1.34542z"/>
   <path fill="url(#linearGradient2410)" fill-rule="evenodd" stroke-width="1px" id="path2408" d="m47.08949,28.68399l2.3239,-2.3239l6.84938,-3.80646l8.67534,-2.06444l6.36883,0.12231l8.19479,2.44621l3.4247,1.83465l4.15855,4.03625l-0.73386,3.05776l-2.69082,-4.89242l-4.03625,2.07928l-5.13704,1.59003l-4.03624,0.85617l-4.15855,0l-0.48923,8.31711l-3.79163,-0.12231l-4.7701,-1.2231l-0.73386,-5.8709l-3.42469,-1.1008l-4.77011,-1.83465l-1.2231,-1.10079z"/>
   <path fill="#000000" fill-rule="evenodd" stroke-width="1px" fill-opacity="0.15686" d="m37.54928,23.54695l-0.61155,-6.48245l5.99321,2.3239l0.36693,6.36014l-5.74859,-2.20159z" id="path2444"/>
   <path fill="#000000" fill-rule="evenodd" stroke-width="1px" fill-opacity="0.15686" d="m58.95359,14.00674l-0.36693,-6.84938l3.547,4.77011l0.36694,5.62627l-3.54701,-3.547z" id="path2446"/>
   <path fill="#000000" fill-rule="evenodd" stroke-width="1px" fill-opacity="0.15686" d="m87.08498,24.64774l-0.36693,5.25935l7.95017,1.10079l-0.12231,-7.094l-7.46094,0.73386z" id="path2448"/>
   <path fill="#000000" fill-rule="evenodd" stroke-width="1px" fill-opacity="0.15686" d="m68.24918,36.63416l-0.85617,7.82786l-1.59003,-5.01472l0.61155,-7.70556l1.83466,4.89242z" id="path2450"/>
   <path fill="#000000" fill-rule="evenodd" stroke-width="1px" fill-opacity="0.15686" d="m47.08949,28.43937l3.30238,-2.93545l5.99321,-2.81314l5.62627,-1.71235l4.52548,-0.61155l5.50397,0.48924l4.40318,0.73386l6.14943,3.23454l4.36926,4.34871l-0.85617,2.56851l1.10079,-3.79162l0,-3.79162l0.48924,-2.4462l-1.95697,-4.40318l-4.28086,-3.91393l0.12231,3.42469l0.24462,2.93545l-4.03624,-2.07928l-1.95696,-0.24462l0.1223,-4.52548l-5.99321,-1.10079l-3.42469,-0.24462l-4.52548,0.24462l0.61156,6.23782l-3.66932,0.85618l-4.15855,0.61155l-0.85617,-0.12231l-0.48924,-5.62628l-4.52549,1.34542l-4.15855,2.81313l-2.32389,2.44621l0.85617,6.11552l1.2231,0.61155l2.56852,1.34542z" id="path3029"/>
   <path fill="url(#linearGradient3218)" fill-rule="evenodd" stroke-width="1px" id="path3031" d="m65.98919,118.74595l0.77838,-9.85946l0.69189,-7.00541l1.64324,-3.54594l4.06486,-4.23784l4.41082,1.12432c1.94987,0.9408 3.39254,1.31299 5.27568,3.97838l4.06487,15.04865l-6.14054,1.64324l-6.4,1.47027l-8.38919,1.38379z"/>
   <path fill="#ffffff" fill-rule="evenodd" stroke-width="1px" fill-opacity="0.12549" id="path3220" d="m62.52973,119.6973l0.25946,-8.64865l1.03784,-10.11892l1.12432,-1.72974l2.85405,-3.63242l4.92974,-4.32433l2.94053,0.86487l4.75676,2.16216l5.10271,3.45946l1.21082,4.75676l3.11351,11.15675l-2.5946,1.47027l-4.23784,-15.56757c-1.23249,-1.67682 -2.18259,-2.8212 -5.01621,-4.15134l-4.23784,-1.21082c-1.50991,1.27658 -4.00951,3.07922 -4.67027,3.71893l-1.9027,4.84325l-1.03783,12.71351l-0.17297,5.1027l-3.45946,-0.86485z"/>
   <path fill="url(#linearGradient3254)" fill-rule="evenodd" stroke-width="1px" id="path3222" d="m62.44324,119.43784l-2.94054,-0.25946l-4.58378,-0.95135c0,0 -0.00848,-3.72739 0.34595,-3.63244c1.654,0.44316 7.43783,1.64325 7.43783,1.64325l-0.25946,3.2z"/>
   <path fill="url(#linearGradient3252)" fill-rule="evenodd" stroke-width="1px" id="path3224" d="m58.72432,115.11351l0.17298,-2.68108l3.71891,1.21082l-0.17297,2.42162l-3.71892,-0.95135z"/>
   <path fill="url(#linearGradient3250)" fill-rule="evenodd" stroke-width="1px" id="path3226" d="m88.82162,110.52973l1.98919,-1.12432l2.94054,-2.24865l0.77838,2.5081l-5.01622,3.54594l-0.69189,-2.68108z"/>
   <path fill="url(#linearGradient3248)" fill-rule="evenodd" stroke-width="1px" id="path3228" d="m92.02162,108.71351l-1.12432,-2.42162l-2.76757,1.64325l0.86487,2.50809l3.02702,-1.72973z"/>
   <path fill="url(#linearGradient3266)" fill-rule="evenodd" stroke-width="1px" id="path3230" d="m86.91892,79.39459l-4.4973,2.50811l-2.85405,1.03783l0.95135,3.37297l1.55676,-0.25946l3.37296,-1.90269l2.94054,-1.98919l-1.47027,-2.76757z"/>
   <path fill="url(#linearGradient3264)" fill-rule="evenodd" stroke-width="1px" id="path3232" d="m86.83244,79.04865l3.19999,-2.42162l2.07568,-1.21082l0.86487,4.23785l-1.81622,1.90271l-2.33514,0.6054l-1.98917,-3.11351z"/>
   <path fill="url(#linearGradient3262)" fill-rule="evenodd" stroke-width="1px" id="path3234" d="m88.56216,82.07568l-3.89188,2.59459l0.6054,2.85405l2.07568,-0.43243l3.71892,-1.72973l0.69189,-0.86486l-0.69189,-3.02703l-2.50811,0.60542z"/>
   <path fill="url(#linearGradient3260)" fill-rule="evenodd" stroke-width="1px" id="path3236" d="m77.83784,92.8l-0.25946,-4.15135l-2.85405,0.08649l0.6054,3.28648l2.50811,0.77838z"/>
   <path fill="url(#linearGradient3258)" fill-rule="evenodd" stroke-width="1px" id="path3238" d="m71.09189,92.45406l-2.07568,-5.62162l5.10271,-1.03785l1.21081,6.40001l-2.42162,-1.03785l-1.47027,1.38379l-0.77838,-0.60542"/>
   <path fill="url(#linearGradient3256)" fill-rule="evenodd" stroke-width="1px" id="path3240" d="m70.05405,89.94595l-2.59459,1.2108l1.98919,2.5946l1.9027,-1.29729l-1.2973,-2.50811z"/>
   <path fill="url(#linearGradient3272)" fill-rule="evenodd" stroke-width="1px" id="path3242" d="m58.81081,82.76757l-5.62162,-1.55676l-2.16216,-0.77838l-0.86487,3.71893l3.28649,0.95135c0,0 2.33513,0.69189 2.68108,0.69189c0.34595,0 2.50811,0.25945 2.50811,0.25945l0.17297,-3.28648z"/>
   <path fill="url(#linearGradient3270)" fill-rule="evenodd" stroke-width="1px" id="path3244" d="m51.54594,80.25946c-0.34594,0 -3.37297,-0.77838 -3.37297,-0.77838l-1.9027,-1.03784l-1.98919,-0.77837l-0.17297,4.15136l2.07567,1.72971l4.06487,0.7784l1.29729,-4.06487z"/>
   <path fill="url(#linearGradient3268)" fill-rule="evenodd" stroke-width="1px" id="path3246" d="m47.13514,83.71892l-0.25946,2.85406l3.11351,1.29729l4.23784,0.86487l-0.08649,-3.37298l-3.11351,-1.03783l-3.89189,-0.60542z"/>
   <path fill="#d59163" fill-rule="evenodd" stroke-width="1px" id="path3458" d="m90.02042,76.38503l-2.07927,2.32389l-0.85617,0.12231l-1.83466,1.10079l-3.18007,1.59003l-0.97849,-8.56173l0.73386,-2.81313l2.07928,-3.79162l4.03624,0.85616l0.85619,1.10081l1.22308,8.07248z"/>
   <path fill="#d59163" fill-rule="evenodd" stroke-width="1px" id="path3460" d="m56.6297,81.88899l-4.89242,-1.46772l-1.71234,-0.48924l-3.05776,-1.59003l0.36693,-7.95018l1.95697,-1.95697l1.10079,-0.85617l1.71234,0l2.93545,1.83466l1.34542,3.42469l0.24462,9.05096z"/>
   <path fill="#000000" fill-rule="evenodd" stroke-width="1px" fill-opacity="0.15686" d="m56.6297,81.88899l-4.89242,-1.46772l-1.71234,-0.48924l-3.05776,-1.59003l0.36693,-7.95018l1.95697,-1.95697l1.10079,-0.85617l1.71234,0l2.93545,1.83466l1.34542,3.42469l0.24462,9.05096z" id="path3462"/>
  </g>
  <g id="layer1">
   <path fill="#000000" fill-rule="evenodd" stroke-width="0.99999994px" id="path2312" d="m65.625,6.71875c-2.4989,0.0169 -5.00644,0.14794 -7.5,0.25l0.375,6.84375c-1.24474,0.74324 -2.89968,0.64326 -4.28125,1.0625l-0.0625,-1.40625l-5.03125,-4.65625c-3.81937,1.9802 -7.86925,2.72699 -12.84375,8.25l0.46875,6.53125c-2.1119,7.53411 -1.45131,15.94563 -0.96875,23.6875c1.13165,2.40218 3.24168,4.04992 5.34375,5.59375l-3.65625,54.0625c6.85978,9.57478 17.65635,12.14622 28.75,13.65625c0.70425,-0.12855 0.20306,-0.69819 0.46875,-1.25c0.96705,-0.1728 1.97036,-0.37518 2.96875,-0.5625l0.40625,1.03125l0.375,-0.09375l0.21875,-1.125c1.23175,-0.23557 2.47229,-0.49158 3.71875,-0.75l0.46875,1.25l0.375,-0.03125l0.15625,-1.40625c1.05419,-0.22395 2.08353,-0.47768 3.125,-0.71875l0.375,1.28125l0.4375,-0.03125l0.1875,-1.46875c1.03194,-0.24623 2.06501,-0.48599 3.0625,-0.75c0.01589,0.12555 0.5625,1.125 0.5625,1.125l0.25,-0.0625c0,0 0.17592,-1.15798 0.15625,-1.3125c0.97551,-0.26786 1.92358,-0.55767 2.84375,-0.84375c0.01714,0.12691 0.15266,0.64214 0.3125,0.875c3.65255,-1.26293 7.33772,-4.91369 10,-7.90625l-5.46875,-55.46875c1.78918,-1.43935 3.21992,-3.1337 4.125,-5.09375c0.1893,-8.61999 -0.27084,-15.29167 -0.40625,-22.9375c-0.06984,-2.70934 -0.98762,-5.5217 -2.625,-8c-2.09083,-2.83056 -4.00807,-3.53043 -5.9375,-5l-5.34375,1.875l-0.0625,3.28125c-1.50053,-0.78614 -2.44975,-2.55868 -4.84375,-1.78125l-0.03125,-1.875l-3,-5.65625c-2.4796,-0.38842 -4.96985,-0.48565 -7.46875,-0.46875zm0.78125,0.5c2.18503,-0.01544 4.35647,0.17796 6.4375,0.65625l2.25,4.375c-3.87677,-0.76193 -8.35917,-1.89079 -13.375,-0.59375l-1.78125,-3.78125c2.0851,-0.41654 4.28372,-0.64081 6.46875,-0.65625zm-7.46875,0.59375l2.28125,3.78125l0.71875,4.96875l-2.71875,-2.875l-0.28125,-5.875zm-10,1.65625l3.53125,3.90625c-3.74786,1.04048 -6.85024,2.13891 -9.4375,5.84375l-5.15625,-2.53125c2.70992,-3.38505 6.70339,-5.48678 11.0625,-7.21875zm17.03125,2.5c0.40424,-0.01612 0.79598,-0.00743 1.1875,0c2.8052,0.05321 5.33575,0.68795 8,1.1875l0.40625,4.21875c2.30023,0.77578 4.62299,1.49145 6.4375,3.5625l-0.46875,-6.875c2.11771,1.47866 3.91858,3.46459 4.78125,5.0625c0.92891,1.72059 1.11846,3.48297 0.5,5.4375l-0.15625,3.90625c-5.771,-6.82264 -14.20233,-8.97337 -22.75,-7.96875c-6.21656,1.03005 -12.83164,3.00658 -17.3125,7.6875l-2.875,-1.78125l-0.1875,-0.65625l-0.1875,-5.28125c2.30208,-3.78687 5.82574,-5.14971 9.875,-6.3125l0.59375,5.3125c1.87996,0.06085 3.94844,0.12135 8.90625,-1.46875l-0.59375,-5.46875c1.35221,-0.33813 2.63104,-0.51414 3.84375,-0.5625zm20.25,0c1.9441,1.41985 4.15096,2.7815 5.59375,4.5c1.4165,1.68718 2.46869,4.40039 2.5,7.28125l-6.46875,0.40625c0.43282,-1.92597 0.08099,-3.59962 -0.84375,-5.3125c-0.9221,-1.70797 -2.91678,-3.71241 -4.96875,-5.1875l4.1875,-1.6875zm-27.4375,2.03125l2.65625,3.4375c-1.92627,0.76823 -4.53995,2.03338 -6.96875,1.78125l-0.28125,-3.8125c1.66524,0.05924 3.17502,-0.54309 4.59375,-1.40625zm17.90625,1.3125c2.12629,-0.12292 3.52927,1.45596 4.28125,2.25l-0.03125,1.40625c-1.34301,-0.90438 -3.13052,-1.45965 -4.75,-1.875l-0.03125,-1.71875c0.18352,-0.03437 0.35721,-0.05244 0.53125,-0.0625zm-39.25,2.3125l4.90625,2.375l0.15625,5.03125c-1.48621,-0.30405 -2.90232,-0.43288 -4.78125,-1.71875l-0.28125,-5.6875zm28.6875,3.125c5.80856,-0.13019 17.36882,2.02906 20.5,8.875c0.04781,0.78291 -0.50398,1.05788 -0.96875,1.5625l-2.15625,-4.375c-2.84918,1.64486 -5.88058,2.71855 -9,3.46875c-0.01282,-0.00597 -1.42262,-0.63689 -2,-0.90625l2.5,-1.90625c0.64495,0.37968 2.03125,1.1875 2.03125,1.1875l0.1875,-0.5625c0,0 -0.77277,-0.33987 -1.875,-0.875l1.03125,-0.8125l-0.1875,-0.34375l-1.25,0.9375c-0.76789,-0.38012 -1.63191,-0.81532 -2.5625,-1.34375c0.31116,-0.17918 0.63171,-0.36334 0.9375,-0.53125l-0.3125,-0.3125c-0.36448,0.18266 -0.73306,0.36798 -1.09375,0.5625c-0.90881,-0.5825 -1.75766,-1.2168 -2.625,-1.78125l1.40625,-0.78125l-0.90625,0.0625l-0.875,0.46875c-0.76559,-0.46411 -1.57357,-0.84963 -2.5,-1.03125l-0.3125,0.1875c0.75406,0.36132 1.48326,0.75778 2.21875,1.15625l-3.75,1.96875c-1.18649,-0.56706 -2.18691,-1.05177 -2.625,-1.28125l-0.09375,0.25c0.36115,0.18917 1.51494,0.7508 2.375,1.1875l-4.75,2.5c-1.71306,-0.6975 -3.17786,-1.28935 -3.65625,-1.46875l-0.1875,0.375c0.28831,0.10812 2.10323,0.91112 3.25,1.40625l-3.5,1.84375l-2.1875,-1.0625l-0.25,0.28125l2.03125,1l-0.96875,0.5l0.71875,0.375l0.96875,-0.53125l4.34375,2.125c-0.42326,0.28057 -0.86363,0.57922 -1.28125,0.84375l-0.0625,0.375c0.56377,-0.32834 1.13545,-0.6693 1.71875,-1.03125l3.625,1.78125l-0.84375,0.625l0.46875,0.40625l0.96875,-0.75l0.96875,0.46875l0.21875,-0.34375l-0.375,3.78125c-2.90585,-0.01768 -4.85269,0.19648 -8.03125,-1.03125l-0.625,-6.15625c-4.03044,-0.73485 -7.74605,-2.19554 -9.6875,-3.4375c4.37164,-4.4111 10.9715,-6.70598 16.9375,-7.71875c0.55379,-0.10551 1.26395,-0.1689 2.09375,-0.1875zm2.625,3.125c0.97519,0.53655 1.94064,1.10395 2.90625,1.65625c-1.08971,0.59701 -2.1629,1.23423 -3.21875,1.90625c-1.1541,-0.54307 -2.31315,-1.07172 -3.34375,-1.5625l3.65625,-2zm-31.25,0.4375l5,1.78125l0.28125,0.65625l-4.71875,1.65625l-0.8125,2.9375c-0.26152,-1.76194 -0.34296,-5.2632 0.25,-7.03125zm56.9375,0.03125l0.03125,6.15625l-6.9375,-1.0625l0.21875,-4.625l6.6875,-0.46875zm-22.28125,1.46875c1.26566,0.72848 1.58111,0.91603 2.46875,1.4375l-2.5625,1.90625c-1.02844,-0.48009 -1.45078,-0.69485 -3.03125,-1.4375c1.05887,-0.67655 2.10334,-1.31181 3.125,-1.90625zm-7.40625,0.25c1.29477,0.65605 1.76711,0.89386 3.28125,1.65625c-1.28728,0.83062 -2.54241,1.67294 -3.78125,2.53125c-0.47423,-0.19976 -0.75591,-0.28651 -1.3125,-0.53125c-0.97677,-0.4295 -1.86187,-0.77728 -2.78125,-1.15625l4.59375,-2.5zm-20.53125,1.21875c1.85581,2.25446 5.11264,4.05263 10.65625,5.21875l-4.09375,2.9375c-3.99561,-1.32256 -8.66767,-1.01294 -11.75,-6.3125l5.1875,-1.84375zm39.09375,0.25l2.15625,5.4375c-5.74954,1.63251 -11.19612,3.93463 -17.28125,3.75l-1.28125,-4.65625c4.97034,-0.45925 10.84548,-1.60618 16.40625,-4.53125zm-14.71875,0.46875c1.339,0.67383 2.1115,1.06947 2.96875,1.5l-2.40625,1.78125c-0.61356,0.0869 -1.2272,0.14476 -1.84375,0.21875c-0.43927,-0.16202 -1.28506,-0.50182 -2.5625,-1.03125c1.27674,-0.84354 2.57135,-1.64949 3.84375,-2.46875zm-9.03125,0.875c1.21973,0.5292 1.76841,0.76475 3.15625,1.375c0.37189,0.16353 0.64558,0.27146 0.96875,0.40625c-1.09859,0.76283 -2.18797,1.47567 -3.25,2.1875l-4.34375,-2.0625l3.46875,-1.90625zm12.4375,0.84375c0.38943,0.19554 1.43963,0.71959 1.5625,0.78125c-1.11629,0.24446 -2.24055,0.44763 -3.375,0.625l1.8125,-1.40625zm-33.75,0.25c2.79555,3.77935 7.76939,4.80877 11.96875,6.34375l0.15625,6.3125c3.5934,1.1466 5.5827,2.01493 17.375,2.3125l0.5625,-7.1875c6.45635,0.1524 12.077,-2.37736 17.84375,-3.96875l0.71875,7c3.29129,-2.13481 6.27467,-3.98276 7.96875,-7.5625c0.36773,4.48198 -0.10389,9.08173 -0.46875,13.71875c-5.96042,9.64148 -18.38241,11.4586 -28.71875,11.59375c-10.10297,-0.52079 -22.6044,-2.43217 -28.875,-11.4375c-0.44771,-5.617 -1.32844,-11.30208 -0.1875,-15.4375l0.84375,2.03125l0.8125,-3.71875zm49.3125,0.21875l7.0625,1.125c-0.56891,3.84587 -4.21098,6.38322 -7.15625,8.5l-0.6875,-6.25l-0.65625,-1.46875c0.88689,-0.38485 1.11707,-1.07845 1.4375,-1.90625zm-23.375,0.65625c0.98402,0.39889 1.60423,0.65326 2.09375,0.8125c-0.0413,0.00456 -0.08369,-0.00452 -0.125,0l-0.1875,1.96875l-1.53125,1.15625l-3.625,-1.75c1.10062,-0.69064 2.23613,-1.43673 3.375,-2.1875zm2.4375,1.75l1.09375,4.75l-0.5,6.1875l-1.09375,-4.03125l0.5,-6.90625zm-10.4375,0.21875l0.5,5.53125l-5.46875,3.28125l0,-5.28125l4.96875,-3.53125zm9.71875,1.59375l-0.09375,1l-0.75,-0.34375l0.84375,-0.65625zm-8.75,4.5c3.35874,1.27736 5.50196,1.34738 8.4375,1.375l0.6875,3.71875c-5.0369,0.21859 -10.43136,0.08102 -15.03125,-1.78125l5.90625,-3.3125zm33.125,14.15625c2.25079,18.11209 4.27502,36.34716 5.375,54.625c-0.38286,0.4677 -0.79665,0.90173 -1.21875,1.34375l-0.53125,-2.25c-0.59928,0.54742 -1.21322,1.00338 -1.8125,1.4375l-0.9375,-2.21875l-2.75,1.53125l-2.90625,-10c-2.45151,-2.29344 -4.99657,-3.62991 -7.625,-4.6875l-0.0625,-4.34375l-2.9375,-0.0625l-0.5625,-3.125l-5.5625,1.375l1,3.125l-2.59375,1.28125l2.03125,2.6875c-2.08224,1.99089 -3.83244,4.27948 -5.4375,6.71875c-0.77121,4.18015 -1.10963,8.41076 -1.34375,12.65625l-3.65625,-0.90625l-0.21875,3c-1.1354,-0.24862 -2.2865,-0.564 -3.4375,-0.90625l-0.40625,3.5c-7.35965,-2.351 -13.77031,-6.85675 -16.21875,-11.03125c0.75269,-18.08501 1.8739,-35.92435 3.625,-53.34375c7.10222,4.09161 15.41575,5.13722 23.46875,5.5c8.55198,0.05264 17.46001,-1.09477 24.71875,-5.90625zm-6.625,13c-1.72907,1.7211 -2.44467,4.37338 -2.8125,6.8125l0.96875,8.90625l-2.25,1.0625l0.78125,3.71875c1.55184,-0.14491 2.91359,-0.74149 4.1875,-1.5l0.78125,2.5625c-0.05057,0.56381 4.7032,-1.01403 6.875,-3.1875l-0.84375,-2.96875l1.78125,-1.625l-1.0625,-4.59375l-2,1.25l-1.125,-9.15625c-1.62154,-1.05396 -3.39066,-1.2828 -5.28125,-1.28125zm-31.5625,0.84375c-1.72763,1.03335 -2.62152,-0.57352 -5.25,3.3125l-0.34375,8.1875c-0.73495,-0.30973 -1.47433,-0.63792 -2.1875,-1l-0.4375,4.53125c0.92006,0.72099 0.71899,1.16644 3,1.90625l-0.25,2.875c2.20697,1.06387 4.73094,1.81072 7.6875,2.125l-0.0625,-3.09375c1.46807,0.32903 2.95786,0.56681 4.5,0.5625l0.40625,-3.875c-0.79286,-0.09889 -1.57754,-0.22953 -2.34375,-0.375l-0.125,-9.96875c-0.74915,-2.40173 -2.5312,-3.89844 -4.59375,-5.1875zm33.5625,0.125c1.18459,0.01398 1.3012,0.44978 2.375,1l1.4375,8.625c-0.8008,0.81769 -1.61606,1.61609 -2.90625,1.78125l-0.90625,-11.40625zm-34.875,0.90625c0.62996,3.88541 0.32395,7.77084 0.15625,11.65625c-1.37344,0.15237 -2.38489,-0.60027 -3.4375,-1.25l0.34375,-7.875c0.88409,-1.0339 1.58868,-2.42681 2.9375,-2.53125zm32.15625,0.40625l2.71875,10.65625c-0.95018,1.34286 -2.15102,1.43243 -3.25,2.03125l-0.5625,-8.15625l0,-0.03125c-0.01126,-1.92173 0.12057,-2.8838 1.09375,-4.5zm-29.96875,0.15625c1.45287,0.87836 2.01245,1.94779 2.71875,3.71875l0.125,9.15625c-1.53317,-0.01699 -2.69218,-0.78232 -3.90625,-1.4375c0.16149,-3.88957 0.11311,-7.86309 1.0625,-11.4375zm38.90625,7.21875l0.6875,3.90625c-0.50314,0.7393 -1.00016,1.43478 -1.78125,1.65625c-0.73058,0.20715 -1.54671,0.35131 -2.375,0.625l-1,-2.5625c0.9983,-0.65891 1.89402,-1.43489 2.625,-2.4375l1.84375,-1.1875zm-47.09375,2.28125c1.54742,0.7491 3.74354,2.24664 5.53125,2.5c0.09539,0.0362 0.18544,0.09005 0.28125,0.125l-0.46875,3.34375c-1.75761,-0.55858 -4.14598,-0.82326 -5.78125,-2l0.4375,-3.96875zm42.15625,1.65625l0.875,2.375c-2.12408,1.41119 -4.62573,3.66447 -7.15625,4.125l-0.75,-3.03125c2.12798,-1.13804 4.35663,-1.58537 6.5,-3.15625c0.18296,-0.10111 0.35324,-0.20502 0.53125,-0.3125zm-35.78125,1.1875c0.45071,0.15185 0.91586,0.27969 1.375,0.40625c1.94098,0.87917 4.2124,1.30816 6.0625,1.59375l-0.34375,2.78125c-2.30023,-0.10033 -5.35645,-0.89933 -7.65625,-1.53125l0.5625,-3.25zm39.75,1.03125l0.34375,2c-0.64101,1.43485 -3.02962,3.05556 -5.65625,3.375l-0.6875,-2.4375c1.13088,-0.71137 2.20957,-1.51548 3.3125,-2.28125l0.0625,-0.03125l0,0.03125c0.76733,-0.29082 1.68312,-0.38918 2.625,-0.65625zm-43.59375,2.09375c0.75309,0.22707 1.69215,0.48426 3,0.78125c1.15725,0.2943 2.30723,0.59991 3.46875,0.875l0.15625,2.75c-1.99109,-0.31344 -5.00766,-1.05907 -6.875,-1.90625l0.25,-2.5zm26.53125,1.96875l0.65625,2.75l0,0.1875l0.0625,0l0.71875,3c-0.85621,-0.30074 -1.72194,-0.59817 -2.59375,-0.90625c-0.45081,0.29154 -0.88965,0.61916 -1.3125,0.9375l-1.875,-4.8125l4.34375,-1.15625zm1.125,2.96875l2.3125,0.0625l0.125,3.6875c-0.61991,-0.24103 -1.24623,-0.46508 -1.875,-0.6875l-0.5625,-3.0625zm-5.03125,1.40625l0.6875,2.15625c-0.40142,0.32823 -0.77826,0.68065 -1.15625,1.03125l-1.71875,-2.25l2.1875,-0.9375zm2.96875,1.25c0.03156,-0.00581 0.06235,0.00452 0.09375,0c6.28837,1.53175 8.5643,4.15353 12.1875,6.40625c1.537,4.9818 3.13928,10.14276 3.875,15.4375c-0.5438,0.34596 -1.08601,0.68084 -1.65625,1l-3.96875,-15.25c-2.52642,-3.0999 -6.12976,-4.41195 -9.78125,-5.6875c-3.37077,1.90015 -5.35832,4.46864 -6.71875,8.03125l-1.4375,17.96875c-0.80103,0.02723 -1.59774,0.0132 -2.40625,-0.03125c-0.19735,-6.29264 -0.05977,-12.45786 1.03125,-18.6875c2.259,-3.73159 5.54472,-6.96317 8.71875,-9.15625c0.02235,-0.00478 0.0402,-0.02715 0.0625,-0.03125zm0.875,3.03125c0.88891,0.37046 1.78558,0.59163 2.65625,0.8125l0.25,2.65625c-0.90871,0.08241 -1.81357,0.19843 -2.71875,0.3125l-0.28125,-3.65625l-0.09375,0c0.06256,-0.04325 0.12478,-0.08131 0.1875,-0.125zm-1.0625,0.75l0.25,3.125c-1.24059,0.1482 -2.54491,0.3187 -3.0625,0.375l-0.03125,-1.03125c0.83873,-1.01829 1.81654,-1.75278 2.84375,-2.46875zm4.75,0.34375c0.30888,0.08679 0.60863,0.17484 0.90625,0.28125c0.87179,0.31171 1.69646,0.73774 2.46875,1.4375c-1.03143,0.23611 -2.032,0.45975 -3.15625,0.53125l-0.21875,-2.25zm3.9375,2.3125c0.37557,0.42798 0.74252,0.91556 1.09375,1.53125l0.53125,2l-1.21875,0.125c-0.02223,-0.19568 -0.04144,-0.46994 -0.0625,-0.65625c-0.10757,-0.95165 -0.2188,-1.77701 -0.28125,-2.40625c-0.03129,-0.31527 -0.04687,-0.38901 -0.0625,-0.59375zm-0.9375,0.59375c0.00426,0.04389 -0.0046,0.04737 0,0.09375c0.06323,0.6372 0.17338,1.48328 0.28125,2.4375c0.02122,0.18767 0.04013,0.45987 0.0625,0.65625l-2.71875,0.3125l-0.3125,-3.15625c1.13876,-0.1396 2.35891,-0.30271 2.6875,-0.34375zm-3.6875,0.4375l0.3125,3.1875l-2.84375,0.34375l-0.21875,-3.1875c0.91792,-0.1049 1.83408,-0.22323 2.75,-0.34375zm-7.84375,0.1875l0.125,3.9375l-1.3125,0.15625l0.15625,-1.5625c0.27354,-0.99818 0.63589,-1.81587 1.03125,-2.53125zm4.09375,0.28125l0.21875,3.15625l-3.1875,0.375l-0.125,-3.1875c0.54504,-0.05746 1.86517,-0.19802 3.09375,-0.34375zm10.25,3l0.875,3.40625l-1.78125,0.375c-0.15252,-1.28102 -0.30554,-2.47304 -0.4375,-3.625l1.34375,-0.15625zm-2.34375,0.28125c0.13491,1.17126 0.28144,2.38381 0.4375,3.6875l-2.8125,0.5625l-0.375,-3.9375l2.75,-0.3125zm-3.75,0.4375l0.375,4l-2.90625,0.5625l-0.3125,-4.21875l2.84375,-0.34375zm-3.84375,0.46875l0.3125,4.28125l-3.375,0.65625l-0.15625,-4.5625l3.21875,-0.375zm-4.21875,0.5l0.15625,4.65625l-2.0625,0.40625l0.46875,-4.90625l1.4375,-0.15625zm21.375,2.625l0.75,2c-0.69753,0.46853 -1.39622,0.89587 -2.09375,1.34375l-0.65625,-2.3125l0.03125,0.03125l1.96875,-1.0625zm-6.09375,0.09375l1.09375,4.09375l-2.5,0.5c-0.17316,-1.4067 -0.3473,-2.81375 -0.53125,-4.21875l1.9375,-0.375zm9.1875,0.5l0.53125,1.96875c-1.24963,1.26086 -2.65963,2.42727 -4.1875,3.46875l-0.65625,-2.3125c1.47424,-0.86725 2.94883,-1.70493 4.3125,-3.125zm-12.09375,0.0625c0.15511,1.40869 0.35002,2.81315 0.53125,4.21875l-2.96875,0.59375l-0.40625,-4.25l2.84375,-0.5625zm-3.84375,0.75l0.40625,4.25l-3.03125,0.59375l-0.3125,-4.28125l2.9375,-0.5625zm-3.9375,0.75l0.3125,4.3125l-3.5625,0.71875l-0.15625,-4.375l3.40625,-0.65625zm-4.40625,0.875l0.1875,4.34375l-2.8125,0.5625l0.5625,-4.34375l2.0625,-0.5625zm16.4375,2.125l0.5,1.875c-0.91594,0.28718 -1.86681,0.5735 -2.84375,0.84375c-0.05905,-0.46542 -0.18133,-1.3928 -0.28125,-2.1875l2.625,-0.53125zm-3.59375,0.71875c0.1025,0.8187 0.22379,1.8259 0.28125,2.28125c-0.98249,0.26188 -2.01155,0.50458 -3.03125,0.75l-0.25,-2.4375l3,-0.59375zm-22.96875,0.1875l3.1875,0.78125c-0.03776,0.70903 -0.09104,1.41599 -0.125,2.125c-1.07072,-0.05578 -2.15139,-0.21438 -3.25,-0.4375l0.1875,-2.46875zm18.96875,0.625l0.25,2.4375c-1.02805,0.24007 -2.05077,0.46378 -3.09375,0.6875l-0.1875,-2.53125l3.03125,-0.59375zm-4.03125,0.8125l0.1875,2.53125c-1.2383,0.25911 -2.46165,0.51372 -3.6875,0.75l-0.09375,-2.5625l3.59375,-0.71875zm-18.65625,0.5625c2.25752,0.76302 4.52373,1.18091 6.78125,1.5c-0.04656,0.98719 -0.1085,1.983 -0.15625,2.96875c-2.30175,-0.2052 -4.61651,-0.6699 -6.84375,-1.34375l0.21875,-3.125zm14.0625,0.34375l0.09375,2.5625c-1.07246,0.2026 -2.1512,0.40874 -3.1875,0.59375c-0.03376,0.00603 -0.06236,0.02094 -0.09375,0.03125l0.15625,-2.53125l3.03125,-0.65625z"/>
  </g>
 </g>
</svg>